<svg id="Camada_10" data-name="Camada 10" xmlns="http://www.w3.org/2000/svg" viewBox="0 0 290.85 241.76"><defs><style>.cls-1{fill:#131b2e;stroke:#2feabb;stroke-miterlimit:10;}.cls-2{opacity:0.8;}.cls-3{fill:#2feabb;}</style></defs><title>ae</title><polygon class="cls-1" points="217.11 240.45 72.27 241.26 0.58 121.68 73.74 1.3 218.58 0.5 290.27 120.08 217.11 240.45"/><polygon class="cls-1" points="210.76 226.64 81.87 225.75 16.75 120.07 80.53 15.27 209.42 16.16 274.54 121.85 210.76 226.64"/><g class="cls-2"><path class="cls-3" d="M822.77,1528.37v108.36H931.12V1528.37Zm102,102H829.12v-95.66h95.65Z" transform="translate(-728.97 -1463.26)"/><polygon class="cls-3" points="133.49 111.52 128.31 125.69 138.47 125.69 133.49 111.52"/><path class="cls-3" d="M894.15,1580.72a6.9,6.9,0,0,0-6.86,6.6h13.82A6.87,6.87,0,0,0,894.15,1580.72Z" transform="translate(-728.97 -1463.26)"/><path class="cls-3" d="M835.47,1541.07v83h82.95v-83Zm36.59,61.8-3.36-9H856.11l-3.3,9h-7.22l13.77-36.06h6.2l13.71,36.06ZM908,1591.74H887.4c.1,1,1.22,6.66,7.06,6.66a6.9,6.9,0,0,0,6.29-3.61l5.84,1.63c-1,2-4.3,6.95-12.39,6.95-8.5,0-14-6.3-14-13.66,0-6.6,4.6-13.91,14.07-13.91,6.77,0,13.87,4.48,13.87,13.66C908.12,1589.9,908,1591.47,908,1591.74Z" transform="translate(-728.97 -1463.26)"/></g></svg>