<svg id="Camada_10" data-name="Camada 10" xmlns="http://www.w3.org/2000/svg" viewBox="0 0 290.85 241.76"><defs><style>.cls-1{fill:#131b2e;stroke:#2feabb;stroke-miterlimit:10;}.cls-2{fill:aqua;}.cls-2,.cls-3{opacity:0.8;}.cls-3{fill:#2feabb;}</style></defs><title>blender</title><polygon class="cls-1" points="217.11 240.45 72.27 241.26 0.58 121.68 73.74 1.3 218.58 0.5 290.27 120.08 217.11 240.45"/><polygon class="cls-1" points="210.76 226.64 81.87 225.75 16.75 120.07 80.53 15.27 209.42 16.16 274.54 121.85 210.76 226.64"/><path class="cls-2" d="M1649.12,379.08a21.39,21.39,0,0,0-25.67,0,15,15,0,0,0-6,10.85,14.56,14.56,0,0,0,5,11.65,21.26,21.26,0,0,0,27.56,0,14.57,14.57,0,0,0,5-11.65A15.07,15.07,0,0,0,1649.12,379.08Z" transform="translate(-1472.97 -263.26)"/><path class="cls-3" d="M1680.79,389.08a37.85,37.85,0,0,0-5.39-14.75,41.22,41.22,0,0,0-9.84-10.84h0l-.11,0c-.08-.07-.14-.16-.23-.23L1624,332.64a5.79,5.79,0,0,0-7.24,9.05l17.34,12.85h-55.7a7.24,7.24,0,1,0,0,14.47h20.71L1556.3,405.5a7.24,7.24,0,0,0,9.42,11l25.92-22.22c-.06,2.33-.11,4.45-.1,5.1,0,10.18,11.45,36.23,45.27,36.23,24.08,0,44.24-14.47,44.24-38.39A37.53,37.53,0,0,0,1680.79,389.08Zm-18.38,9.33a24.05,24.05,0,0,1-5.6,8.66,29.71,29.71,0,0,1-41,.06,24.14,24.14,0,0,1-5.61-8.64,22.15,22.15,0,0,1-1.28-9.66,22.56,22.56,0,0,1,2.81-9.09,25.39,25.39,0,0,1,6.23-7.31,30,30,0,0,1,36.75-.05,25.15,25.15,0,0,1,6.23,7.28,22.51,22.51,0,0,1,2.81,9.09A22.18,22.18,0,0,1,1662.41,398.41Z" transform="translate(-1472.97 -263.26)"/></svg>