<svg id="Camada_10" data-name="Camada 10" xmlns="http://www.w3.org/2000/svg" viewBox="0 0 245.31 206.74"><defs><style>.cls-1{fill:#131b2e;}.cls-1,.cls-2{stroke:#2feabb;stroke-miterlimit:10;}.cls-2{fill:#2feabb;}</style></defs><title>boot</title><polygon class="cls-1" points="183.13 205.48 61.06 206.24 0.58 104.13 62.18 1.26 184.25 0.5 244.73 102.61 183.13 205.48"/><polygon class="cls-1" points="177.77 193.68 69.14 192.99 14.21 102.74 67.91 13.19 176.54 13.88 231.48 104.13 177.77 193.68"/><g id="Bootstrap"><path class="cls-2" d="M1133,964.06a9.65,9.65,0,0,0-7.07-2.44h-17.46l0,19.45h17.74a9.55,9.55,0,0,0,6.78-2.58,10.17,10.17,0,0,0,2.7-7.31A9.75,9.75,0,0,0,1133,964.06Zm-2.46-12.55a8.38,8.38,0,0,0,2.45-6.42,8.53,8.53,0,0,0-2.17-6.63,9,9,0,0,0-6-1.91H1108.5v17.19h16.35a8.61,8.61,0,0,0,5.89-2.23Zm22.87-47.12-65.41,0c-9,0-16.34,8-16.34,17.82l0,71.24c0,9.84,7.33,17.81,16.36,17.8l65.41,0c9,0,16.35-8,16.34-17.82l0-71.24C1169.8,912.35,1162.48,904.38,1153.45,904.39Zm-8.91,75a13.4,13.4,0,0,1-3.76,5.52,17.82,17.82,0,0,1-6.58,3.65,28.84,28.84,0,0,1-9.52,1.39h-26.29l0-62.33,27.79,0a18.58,18.58,0,0,1,12.27,3.83,14.14,14.14,0,0,1,4.67,11.61,14.77,14.77,0,0,1-1.88,8.06,14.1,14.1,0,0,1-6,5.22h0a12.33,12.33,0,0,1,8.18,5.42,19.42,19.42,0,0,1,2.75,10.6A18.83,18.83,0,0,1,1144.54,979.42Z" transform="translate(-997.95 -854)"/></g></svg>