<svg id="Camada_10" data-name="Camada 10" xmlns="http://www.w3.org/2000/svg" viewBox="0 0 290.85 241.76"><defs><style>.cls-1{fill:#131b2e;}.cls-1,.cls-2{stroke:#2feabb;stroke-miterlimit:10;}.cls-2{fill:#2feabb;}</style></defs><title>csharp</title><polygon class="cls-1" points="217.11 240.45 72.27 241.26 0.58 121.68 73.74 1.3 218.58 0.5 290.27 120.08 217.11 240.45"/><polygon class="cls-1" points="210.76 226.64 81.87 225.75 16.75 120.07 80.53 15.27 209.42 16.16 274.54 121.85 210.76 226.64"/><ellipse class="cls-2" cx="146.34" cy="120.13" rx="88.92" ry="75.19"/><polygon class="cls-1" points="168.24 137.2 168.24 137.2 168.23 137.2 168.24 137.2"/><path class="cls-1" d="M1032.76,1264.08h-2.18l1-5.54a3.5,3.5,0,0,0-.62-2.92,3,3,0,0,0-2.52-1.2,3.22,3.22,0,0,0-2.09.7,2.91,2.91,0,0,0-1,1.94l-1.21,7H1014l.95-5.54a3.57,3.57,0,0,0-.62-2.92,3.09,3.09,0,0,0-2.58-1.2,3.22,3.22,0,0,0-2,.7,3,3,0,0,0-1,1.94l-1.2,7h-4a3.39,3.39,0,0,0-2.37.86,2.85,2.85,0,0,0-1,2.22v.12a3.25,3.25,0,0,0,3.32,3.2h2.87l-1.82,10.71h-3.33a3.39,3.39,0,0,0-2.37.86,2.89,2.89,0,0,0-.95,2.21v.15a3.26,3.26,0,0,0,3.32,3.18h2.24l-1,5.76a3.79,3.79,0,0,0,.62,2.92,2.94,2.94,0,0,0,2.49,1.23,3.09,3.09,0,0,0,3.13-2.65l1.24-7.26H1020l-1,5.76a3.55,3.55,0,0,0,.62,2.92,3.06,3.06,0,0,0,2.58,1.23,3,3,0,0,0,2.07-.74,3.08,3.08,0,0,0,1-1.91l1.24-7.26h4a3.39,3.39,0,0,0,2.37-.86,2.89,2.89,0,0,0,1-2.22v-.11a3.28,3.28,0,0,0-3.33-3.21h-2.88l1.83-10.71h3.27a3.36,3.36,0,0,0,2.36-.86,2.89,2.89,0,0,0,1-2.22v-.12A3.26,3.26,0,0,0,1032.76,1264.08Zm-11.64,17.11H1011l1.83-10.71H1023Z" transform="translate(-837.31 -1160.3)"/><path class="cls-1" d="M999,1238a6.58,6.58,0,0,1,3.76,5.06,7.6,7.6,0,0,1-1.79,6.28,5.65,5.65,0,0,1-4.12,2.47,9.6,9.6,0,0,1-5.13-1,32.27,32.27,0,0,0-6.22-2.09,31.49,31.49,0,0,0-6.84-.74,32.16,32.16,0,0,0-11.89,2.09,25.1,25.1,0,0,0-8.94,6,26,26,0,0,0-5.61,9.17,34.36,34.36,0,0,0-1.91,11.71,36.17,36.17,0,0,0,2.16,13.07,25.57,25.57,0,0,0,6,9.24,24.06,24.06,0,0,0,9,5.48,33.91,33.91,0,0,0,11.21,1.79,37.25,37.25,0,0,0,6.66-.61,23,23,0,0,0,6.4-2.22,8.76,8.76,0,0,1,5.13-.86,6.45,6.45,0,0,1,4.24,2.58,7.48,7.48,0,0,1,1.8,6.35,6.53,6.53,0,0,1-3.77,4.75,42.55,42.55,0,0,1-6.59,2.64,48.87,48.87,0,0,1-6.84,1.61,43.64,43.64,0,0,1-7,.55,49.4,49.4,0,0,1-16.82-2.83,42.69,42.69,0,0,1-14.18-8.38,38.76,38.76,0,0,1-9.8-13.87,48.64,48.64,0,0,1-3.58-19.29,46,46,0,0,1,3.27-17.5,40.65,40.65,0,0,1,9.24-13.87,42.92,42.92,0,0,1,14.11-9.12,47.3,47.3,0,0,1,17.75-3.26,46.25,46.25,0,0,1,10.61,1.23A43.29,43.29,0,0,1,999,1238Z" transform="translate(-837.31 -1160.3)"/></svg>