<svg id="Camada_10" data-name="Camada 10" xmlns="http://www.w3.org/2000/svg" viewBox="0 0 235.07 195.39"><defs><style>.cls-1{fill:#131b2e;}.cls-1,.cls-3{stroke:#2feabb;stroke-miterlimit:10;}.cls-2,.cls-3{opacity:0.8;}.cls-3{fill:#2feabb;}.cls-4{opacity:0.1;}</style></defs><title>css</title><polygon class="cls-1" points="175.42 194.24 58.47 194.89 0.58 98.35 59.65 1.15 176.6 0.5 234.48 97.05 175.42 194.24"/><polygon class="cls-1" points="170.29 183.09 66.21 182.38 13.64 97.04 65.14 12.43 169.21 13.15 221.78 98.48 170.29 183.09"/><g class="cls-2"><path class="cls-3" d="M1490.66,443.08a2.08,2.08,0,0,0-1.49-.62H1424.7a2,2,0,0,0-2,1.88v.19l6,60.36a1.91,1.91,0,0,0,1.45,1.64l28.21,7.54a2.1,2.1,0,0,0,.56.08,2.37,2.37,0,0,0,.64-.1l24.17-7.54a1.92,1.92,0,0,0,1.37-1.62l6.06-60.36A1.81,1.81,0,0,0,1490.66,443.08Zm-11.56,16.57-4,34a1.92,1.92,0,0,1-1.45,1.6L1459.5,499a2.24,2.24,0,0,1-.57.08,2.52,2.52,0,0,1-.55-.08l-14.1-3.77a2,2,0,0,1-1.4-1.36l-2-7.54a1.88,1.88,0,0,1,1.33-2.3l.08,0a2,2,0,0,1,2.47,1.32.14.14,0,0,1,0,.09l1.74,6.49,12.43,3.33,12.25-3.28,1.84-15.52h-32.18a1.89,1.89,0,1,1-.19-3.77h32.85l1.33-11.32h-36a1.89,1.89,0,1,1-.18-3.77h38.45a2,2,0,0,1,2,1.88c0,.07,0,.14,0,.21Z" transform="translate(-1340.73 -371.59)"/><path class="cls-3" d="M1444.85,434.92h-8.06a2,2,0,0,1-2-1.89v-7.54a2,2,0,0,1,2-1.89h8.06a1.89,1.89,0,1,1,.25,3.77h-6.29v3.78h6a1.89,1.89,0,1,1,.26,3.77Z" transform="translate(-1340.73 -371.59)"/><path class="cls-3" d="M1461,434.92h-8a1.89,1.89,0,1,1-.26-3.77h3.45l-4.62-4.33a1.8,1.8,0,0,1-.11-2.54l.11-.11a2.11,2.11,0,0,1,1.43-.56H1461a1.89,1.89,0,0,1,.26,3.78h-3.46l4.62,4.32a1.81,1.81,0,0,1,.1,2.55l-.1.1A2.11,2.11,0,0,1,1461,434.92Z" transform="translate(-1340.73 -371.59)"/><path class="cls-3" d="M1477.08,434.92H1469a1.89,1.89,0,1,1-.25-3.77h3.45l-4.62-4.33a1.79,1.79,0,0,1-.11-2.54l.11-.11a2.11,2.11,0,0,1,1.43-.56h8a1.89,1.89,0,0,1,.26,3.78h-3.45l4.61,4.32a1.79,1.79,0,0,1,.12,2.54l-.12.11A2.06,2.06,0,0,1,1477.08,434.92Z" transform="translate(-1340.73 -371.59)"/></g><g class="cls-4"><path class="cls-3" d="M1493.88,444.45a2.1,2.1,0,0,0-1.49-.62h-64.47a2,2,0,0,0-2,1.88v.18l6,60.37a1.92,1.92,0,0,0,1.45,1.64l28.2,7.54a2.3,2.3,0,0,0,1.2,0l24.18-7.55a1.91,1.91,0,0,0,1.37-1.61l6.05-60.37A1.79,1.79,0,0,0,1493.88,444.45ZM1482.31,461l-4,34a1.91,1.91,0,0,1-1.45,1.61l-14.1,3.77a2.1,2.1,0,0,1-.56.07,2.15,2.15,0,0,1-.56-.07l-14.1-3.78a1.93,1.93,0,0,1-1.4-1.35l-2-7.55a1.87,1.87,0,0,1,1.33-2.3l.08,0a2,2,0,0,1,2.47,1.33v.08l1.73,6.5,12.44,3.32,12.25-3.28,1.83-15.51H1444a1.89,1.89,0,0,1-.18-3.77h32.85L1478,462.7h-36a1.89,1.89,0,1,1-.19-3.77h38.46a2,2,0,0,1,2,1.87,1.5,1.5,0,0,1,0,.22Z" transform="translate(-1340.73 -371.59)"/><path class="cls-3" d="M1448.06,436.29H1440a2,2,0,0,1-2-1.89v-7.55a2,2,0,0,1,2-1.89h8.06a1.89,1.89,0,1,1,.26,3.78H1442v3.77h6a1.89,1.89,0,0,1,.26,3.78h-.27Z" transform="translate(-1340.73 -371.59)"/><path class="cls-3" d="M1464.18,436.29h-8.06a1.89,1.89,0,0,1-.25-3.78h3.45l-4.62-4.32a1.79,1.79,0,0,1-.11-2.55l.11-.11a2.05,2.05,0,0,1,1.43-.55h8a1.89,1.89,0,1,1,.26,3.77H1461l4.61,4.32a1.8,1.8,0,0,1,.11,2.55l-.11.1A2.12,2.12,0,0,1,1464.18,436.29Z" transform="translate(-1340.73 -371.59)"/><path class="cls-3" d="M1480.3,436.29h-8.06a1.89,1.89,0,0,1-.26-3.78h3.46l-4.63-4.32a1.81,1.81,0,0,1-.11-2.55.57.57,0,0,0,.11-.11,2.06,2.06,0,0,1,1.44-.55h8a1.89,1.89,0,0,1,.26,3.77h-3.46l4.62,4.33a1.8,1.8,0,0,1,.12,2.53l-.12.12A2.1,2.1,0,0,1,1480.3,436.29Z" transform="translate(-1340.73 -371.59)"/></g></svg>