<svg id="Camada_10" data-name="Camada 10" xmlns="http://www.w3.org/2000/svg" viewBox="0 0 290.85 241.76"><defs><style>.cls-1{fill:#131b2e;stroke:#2feabb;stroke-miterlimit:10;}.cls-2{opacity:0.8;}.cls-3{fill:#2feabb;}.cls-4{fill:#2ee1bb;}.cls-5{opacity:0.3;}</style></defs><title>flutter</title><polygon class="cls-1" points="217.11 240.45 72.27 241.26 0.58 121.68 73.74 1.3 218.58 0.5 290.27 120.08 217.11 240.45"/><polygon class="cls-1" points="210.76 226.64 81.87 225.75 16.75 120.07 80.53 15.27 209.42 16.16 274.54 121.85 210.76 226.64"/><g class="cls-2"><rect class="cls-3" x="403.86" y="309.37" width="27.62" height="90.63" transform="translate(78.23 -453.53) rotate(45)"/><polyline class="cls-3" points="164.57 70.32 184.14 50.78 145.04 50.79"/><polygon class="cls-4" points="130.09 164.11 144.85 178.96 184.29 178.96 149.75 144.42 130.09 124.94 110.94 144.37 130.09 164.11"/><polygon class="cls-3" points="110.6 144.22 144.85 109.69 184.29 109.69 149.75 144.29 130.09 163.99 110.6 144.22"/></g><g class="cls-5"><rect class="cls-3" x="404.3" y="312.53" width="27.62" height="90.63" transform="translate(80.59 -452.92) rotate(45)"/><polyline class="cls-3" points="165.01 73.48 184.58 53.95 145.48 53.95"/><polygon class="cls-4" points="130.53 167.27 145.29 182.12 184.74 182.12 150.19 147.58 130.53 128.1 111.38 147.53 130.53 167.27"/><polygon class="cls-3" points="111.04 147.38 145.29 112.85 184.74 112.85 150.19 147.46 130.53 167.15 111.04 147.38"/></g></svg>