<svg id="Camada_10" data-name="Camada 10" xmlns="http://www.w3.org/2000/svg" viewBox="0 0 235.07 195.39"><defs><style>.cls-1{fill:#131b2e;}.cls-1,.cls-3{stroke:#2feabb;stroke-miterlimit:10;}.cls-2{opacity:0.1;}.cls-3{fill:#2feabb;}.cls-3,.cls-4{opacity:0.8;}</style></defs><title>html</title><polygon class="cls-1" points="175.42 194.24 58.47 194.89 0.58 98.35 59.65 1.15 176.6 0.5 234.48 97.05 175.42 194.24"/><polygon class="cls-1" points="170.29 183.09 66.21 182.38 13.64 97.04 65.14 12.43 169.21 13.15 221.78 98.48 170.29 183.09"/><g class="cls-2"><path class="cls-3" d="M326,227.5a1.75,1.75,0,0,1-1.56-1.89v-7.55a1.59,1.59,0,1,1,3.12,0v7.55A1.75,1.75,0,0,1,326,227.5Z" transform="translate(-210.53 -163.38)"/><path class="cls-3" d="M307,216.18a1.88,1.88,0,0,0-1.87,1.88h0v7.55a1.87,1.87,0,1,0,3.74,0v-7.55a1.88,1.88,0,0,0-1.87-1.88Z" transform="translate(-210.53 -163.38)"/><path class="cls-3" d="M314.45,223.72H307a1.89,1.89,0,1,1,0-3.78h7.49a1.89,1.89,0,0,1,0,3.78Z" transform="translate(-210.53 -163.38)"/><path class="cls-3" d="M314.45,227.5a1.89,1.89,0,0,1-1.88-1.89h0v-7.55a1.87,1.87,0,0,1,3.74-.18.54.54,0,0,1,0,.18v7.55a1.88,1.88,0,0,1-1.86,1.89Z" transform="translate(-210.53 -163.38)"/><path class="cls-3" d="M348.12,227.5a1.88,1.88,0,0,1-1.86-1.89v-1.89l-2.25,3a1.94,1.94,0,0,1-2.72.27h0a2.23,2.23,0,0,1-.27-.26l-2.24-3v1.88a1.87,1.87,0,1,1-3.74.19.61.61,0,0,1,0-.19v-7.54a1.87,1.87,0,0,1,3.37-1.13l4.11,5.54,4.12-5.54a1.85,1.85,0,0,1,2.59-.39l0,0a1.88,1.88,0,0,1,.75,1.5v7.55a1.89,1.89,0,0,1-1.88,1.89Z" transform="translate(-210.53 -163.38)"/><path class="cls-3" d="M361.22,227.5h-5.61a1.89,1.89,0,0,1-1.87-1.88h0v-7.55a1.88,1.88,0,0,1,3.75-.18v5.84h3.73a1.89,1.89,0,0,1,0,3.77Z" transform="translate(-210.53 -163.38)"/><path class="cls-3" d="M364.48,235.65a1.86,1.86,0,0,0-1.38-.62H303.22a1.88,1.88,0,0,0-1.88,1.88.54.54,0,0,0,0,.18L307,297.46a1.9,1.9,0,0,0,1.35,1.64l26.2,7.54a1.81,1.81,0,0,0,.52.07,2,2,0,0,0,.59-.09l22.45-7.55a1.88,1.88,0,0,0,1.28-1.61L365,237.11A1.94,1.94,0,0,0,364.48,235.65ZM351.87,253.9H318.43l1.41,11.32h28.28A1.88,1.88,0,0,1,350,267.1h0v.2l-1.87,18.87a1.89,1.89,0,0,1-1.27,1.6l-11.22,3.77a2.1,2.1,0,0,1-.61.09,1.75,1.75,0,0,1-.51-.07l-13.11-3.76a1.89,1.89,0,0,1-1.29-1.36l-1.88-7.54a1.87,1.87,0,1,1,3.58-1.1l0,.1a.13.13,0,0,0,0,.08l1.61,6.49L335,287.78l9.53-3.2L346,269H318.19a1.9,1.9,0,0,1-1.88-1.65l-1.86-15.09a1.87,1.87,0,0,1,1.61-2.11h35.81a1.89,1.89,0,0,1,0,3.77Z" transform="translate(-210.53 -163.38)"/><path class="cls-3" d="M329.67,219.8h-8a2,2,0,0,1,0-4h8a2,2,0,0,1,0,4Z" transform="translate(-210.53 -163.38)"/></g><g class="cls-4"><path class="cls-3" d="M320.78,227a1.74,1.74,0,0,1-1.56-1.88v-7.55a1.59,1.59,0,1,1,3.13,0v7.55A1.75,1.75,0,0,1,320.78,227Z" transform="translate(-210.53 -163.38)"/><path class="cls-3" d="M301.76,215.66a1.88,1.88,0,0,0-1.87,1.89h0v7.55a1.87,1.87,0,1,0,3.74,0v-7.55a1.88,1.88,0,0,0-1.87-1.89Z" transform="translate(-210.53 -163.38)"/><path class="cls-3" d="M309.25,223.2h-7.49a1.89,1.89,0,0,1,0-3.77h7.49a1.89,1.89,0,0,1,0,3.77Z" transform="translate(-210.53 -163.38)"/><path class="cls-3" d="M309.25,227a1.88,1.88,0,0,1-1.88-1.88h0v-7.55a1.88,1.88,0,0,1,3.75-.18v7.73a1.88,1.88,0,0,1-1.87,1.88Z" transform="translate(-210.53 -163.38)"/><path class="cls-3" d="M342.93,227a1.88,1.88,0,0,1-1.87-1.88v-1.9l-2.25,3a1.92,1.92,0,0,1-2.72.27h0a1.66,1.66,0,0,1-.26-.27l-2.25-3v1.89a1.87,1.87,0,0,1-3.74.18v-7.72a1.87,1.87,0,0,1,3.37-1.13l4.11,5.53,4.12-5.53A1.85,1.85,0,0,1,344,216l0,0a1.91,1.91,0,0,1,.75,1.51v7.55a1.88,1.88,0,0,1-1.87,1.88Z" transform="translate(-210.53 -163.38)"/><path class="cls-3" d="M356,227h-5.62a1.88,1.88,0,0,1-1.87-1.88h0v-7.55a1.88,1.88,0,0,1,3.75-.18v5.83H356a1.89,1.89,0,0,1,0,3.77Z" transform="translate(-210.53 -163.38)"/><path class="cls-3" d="M359.28,235.13a1.85,1.85,0,0,0-1.38-.61H298a1.88,1.88,0,0,0-1.88,1.87v.19l5.61,60.36a1.87,1.87,0,0,0,1.36,1.64l26.19,7.55a1.81,1.81,0,0,0,.52.07,1.7,1.7,0,0,0,.59-.1l22.46-7.54a1.89,1.89,0,0,0,1.27-1.62l5.61-60.35A1.87,1.87,0,0,0,359.28,235.13Zm-12.61,18.26H313.23l1.41,11.32h28.28a1.88,1.88,0,0,1,1.89,1.87h0v.19l-1.88,18.87a1.85,1.85,0,0,1-1.27,1.6L330.44,291a1.79,1.79,0,0,1-1.12,0l-13.1-3.76a1.87,1.87,0,0,1-1.3-1.36L313,278.38a1.88,1.88,0,0,1,3.59-1.1.44.44,0,0,1,0,.1.11.11,0,0,0,0,.09l1.61,6.49,11.49,3.31,9.52-3.21,1.55-15.57H313a1.86,1.86,0,0,1-1.87-1.65l-1.87-15.09a1.88,1.88,0,0,1,1.61-2.11h35.81a1.89,1.89,0,0,1,0,3.77Z" transform="translate(-210.53 -163.38)"/><path class="cls-3" d="M324.48,219.28h-8a2,2,0,0,1,0-4h8a2,2,0,0,1,0,4Z" transform="translate(-210.53 -163.38)"/></g></svg>