<svg xmlns="http://www.w3.org/2000/svg" id="Camada_10" data-name="Camada 10" viewBox="0 0 290.85 241.76"><defs><style>.cls-1{fill:#131b2e}.cls-1,.cls-3{stroke:#2feabb;stroke-miterlimit:10}.cls-2{opacity:.8}.cls-3{fill:#2feabb}</style></defs><title>AI</title><polygon points="217.11 240.45 72.27 241.26 .58 121.68 73.74 1.3 218.58 .5 290.27 120.08 217.11 240.45" class="cls-1"/><polygon points="210.76 226.64 81.87 225.75 16.75 120.07 80.53 15.27 209.42 16.16 274.54 121.85 210.76 226.64" class="cls-1"/><g class="cls-2"><path d="M571.88,1374h-.16c-.78,3.14-1.56,7.12-2.42,10.17l-3.13,11.19h11.65l-3.28-11.19C573.6,1381.07,572.66,1377.17,571.88,1374Z" class="cls-3" transform="translate(-436.46 -1264.47)"/><path d="M627.09,1338.58H536.17a6.34,6.34,0,0,0-6.34,6.34v90.93a6.34,6.34,0,0,0,6.34,6.34h90.92a6.34,6.34,0,0,0,6.35-6.34v-90.93A6.34,6.34,0,0,0,627.09,1338.58Zm-43.48,79.25-4.07-13.52H564.45l-3.76,13.52H548.34l16.11-52.71h15.64l16.35,52.71Zm30.93,0h-11.9v-38.24h11.9Zm-6-42.93a5.83,5.83,0,0,1-6.19-6c-.07-3.45,2.43-6,6.27-6a6,6,0,0,1,6.33,6C614.93,1372.23,612.43,1374.9,608.52,1374.9Z" class="cls-3" transform="translate(-436.46 -1264.47)"/></g></svg>