<svg id="Camada_10" data-name="Camada 10" xmlns="http://www.w3.org/2000/svg" viewBox="0 0 247.1 205.83"><defs><style>.cls-1{fill:#131b2e;}.cls-1,.cls-2{stroke:#2feabb;stroke-miterlimit:10;}.cls-2{fill:#2feabb;}</style></defs><title>jquery</title><polygon class="cls-1" points="184.28 204.5 61.32 205.33 0.58 103.75 62.81 1.34 185.78 0.5 246.51 102.08 184.28 204.5"/><polygon class="cls-1" points="178.9 192.76 69.48 192.14 14.31 102.36 68.56 13.2 177.99 13.83 233.16 103.61 178.9 192.76"/><g id="Layer_5" data-name="Layer 5"><path class="cls-2" d="M333.8,189.51h0l-1,6.83,1-6.82Z" transform="translate(-220.65 -91.6)"/><path class="cls-2" d="M339,204.33l-1.12,0Z" transform="translate(-220.65 -91.6)"/><path class="cls-2" d="M338.74,214.52h0l-6.71,0,6.71,0Z" transform="translate(-220.65 -91.6)"/><path class="cls-2" d="M340.15,204.34h0Z" transform="translate(-220.65 -91.6)"/><path class="cls-2" d="M339.33,213.66l1.17-8.45-1.17,8.45Z" transform="translate(-220.65 -91.6)"/><path class="cls-2" d="M364.05,174.75l-2.17,19.4Z" transform="translate(-220.65 -91.6)"/><path class="cls-2" d="M358.45,174.75l-1.65,14.49,1.65-14.49Z" transform="translate(-220.65 -91.6)"/><path class="cls-2" d="M363.68,173.88H359c-.26,0-.51.39-.57.87l-1.65,14.49-1.66,14.49c-.05.48-.31.88-.57.88h-3.3c-3.26,0-2.88-4.28-2.21-10.14a1.11,1.11,0,0,1,0-.17l.07-.74c0-.05,0-.09,0-.14l.15-1.5.16-1.61c0-.49.12-1.2.17-1.64l.75-7,.76-7c.05-.48-.12-.87-.38-.87H346c-.26,0-.52.39-.57.87l-1,9.24-1,9.24h0l-.09.86c-1.19,10.24-.87,20,5.56,20.31h10.3c.26,0,.51-.39.56-.87l2.18-19.4,2.18-19.4c.06-.48-.11-.87-.37-.87Z" transform="translate(-220.65 -91.6)"/><path class="cls-2" d="M382.27,204.71c.26,0,.43.39.38.87l-.46,4.19" transform="translate(-220.65 -91.6)"/><path class="cls-2" d="M381.74,214l.46-4.19-.46,4.19Z" transform="translate(-220.65 -91.6)"/><path class="cls-2" d="M381.18,214.84h0c-1.37,0-5.49.08-8.59.08,3.77,0,8.59-.08,8.59-.08Z" transform="translate(-220.65 -91.6)"/><path class="cls-2" d="M369.81,199.31c0-.46.27-1.25.53-1.25l-.58,0c-.27,5,.05,1.27.05,1.27Z" transform="translate(-220.65 -91.6)"/><path class="cls-2" d="M373,214.91h0Z" transform="translate(-220.65 -91.6)"/><path class="cls-2" d="M382.27,204.71c.26,0,.43.39.38.87l-.46,4.19-.07.68" transform="translate(-220.65 -91.6)"/><path class="cls-2" d="M375.22,214.91h0Z" transform="translate(-220.65 -91.6)"/><path class="cls-2" d="M374.07,214.91h0Z" transform="translate(-220.65 -91.6)"/><path class="cls-2" d="M373.73,214.91h0Z" transform="translate(-220.65 -91.6)"/><path class="cls-2" d="M373.37,214.91h0Z" transform="translate(-220.65 -91.6)"/><path class="cls-2" d="M374,214.91h0Z" transform="translate(-220.65 -91.6)"/><path class="cls-2" d="M375.2,214.91h0Z" transform="translate(-220.65 -91.6)"/><path class="cls-2" d="M381.18,214.84h0c-1,0-3.49,0-6,.06C377.69,214.89,380.17,214.85,381.18,214.84Z" transform="translate(-220.65 -91.6)"/><path class="cls-2" d="M381.74,214l.38-3.51-.38,3.51Z" transform="translate(-220.65 -91.6)"/><path class="cls-2" d="M373.62,214.91h0Z" transform="translate(-220.65 -91.6)"/><path class="cls-2" d="M372.92,214.92h0Z" transform="translate(-220.65 -91.6)"/><path class="cls-2" d="M373.27,214.91h0Z" transform="translate(-220.65 -91.6)"/><path class="cls-2" d="M305.11,199.42l.72-6.08-.83,6.95-.79,7.07.7-6.2c0-.48.14-1.27.2-1.74Z" transform="translate(-220.65 -91.6)"/><path class="cls-2" d="M313.77,173.77h-5.12c-.25,0-.51.4-.57.87l-.49,4.06-.48,4.05c-.06.48.11.87.37.87h5.15c.26,0,.52-.39.57-.87l.47-4.05.47-4.06h0c.06-.47-.11-.87-.37-.87Z" transform="translate(-220.65 -91.6)"/><path class="cls-2" d="M312.66,187.27h0l-1.5,13.15Z" transform="translate(-220.65 -91.6)"/><path class="cls-2" d="M297.79,230.83s2.58.07,4.22.07c-1.24,0-3.3-.05-4.22-.07Z" transform="translate(-220.65 -91.6)"/><path class="cls-2" d="M306.56,187.26l-.73,6.08Z" transform="translate(-220.65 -91.6)"/><path class="cls-2" d="M312.29,186.39h-5.16c-.26,0-.52.4-.57.87l-.73,6.08-.72,6.08c-.06.47-.15,1.26-.2,1.74l-.7,6.2-.7,6.2c-.05.48-.16,1.25-.24,1.72,0,0-1,5.43-2.59,5.37h-.2l-1.4,0h0c-.26,0-.52.38-.58.85L298,225.7l-.53,4.26c-.06.47.1.87.36.87.92,0,3,.07,4.22.07,4.05,0,6.18-4.25,7.55-16.46l1.6-14,1.5-13.15c0-.48-.11-.88-.37-.88Z" transform="translate(-220.65 -91.6)"/><path class="cls-2" d="M385.56,214.42c-.26,0-.43-.39-.37-.87l3.88-34.42" transform="translate(-220.65 -91.6)"/><path class="cls-2" d="M391,213.55l1.57-14.69Z" transform="translate(-220.65 -91.6)"/><path class="cls-2" d="M385.24,214a7.63,7.63,0,0,1,0-1.3l1.85-16.34-1.94,17.21c-.06.48.11.87.37.87H386c-.26,0-.76-.2-.79-.44Z" transform="translate(-220.65 -91.6)"/><path class="cls-2" d="M390.64,214.22a1.36,1.36,0,0,1-.72.2h.47c.26,0,.51-.39.56-.87l.1-.88a4.89,4.89,0,0,1-.41,1.55Z" transform="translate(-220.65 -91.6)"/><path class="cls-2" d="M391.74,206.2l.69-6.48h0l-.69,6.47Z" transform="translate(-220.65 -91.6)"/><path class="cls-2" d="M407.05,181.44l.21,1.67c.06.48-.11.87-.36.87" transform="translate(-220.65 -91.6)"/><path class="cls-2" d="M391,212.67l.69-6.47Z" transform="translate(-220.65 -91.6)"/><path class="cls-2" d="M406.83,179.72l.21,1.72Z" transform="translate(-220.65 -91.6)"/><path class="cls-2" d="M392.43,199.72c.05-.48.13-1.26.19-1.73l.74-6.57-.84,7.44-.09.86Z" transform="translate(-220.65 -91.6)"/><path class="cls-2" d="M389.13,178.57c-.05.46-.12,1-.16,1.43l-1.84,16.34,1.94-17.21.06-.56Z" transform="translate(-220.65 -91.6)"/><path class="cls-2" d="M407.26,183.11l-.22-1.67-.21-1.72-.11-.86c-.41-3.09-1.64-4.86-4.31-4.86h-12.3c-.26,0-.51.39-.57.87h0l-.19,1.7-.22,2-.06.56-1.94,17.21-1.85,16.34a7.63,7.63,0,0,0,0,1.3c0,.24.53.44.79.44h3.89a1.39,1.39,0,0,0,.72-.2,4.6,4.6,0,0,0,.4-1.55l.7-6.47.69-6.47h0l.09-.86.84-7.44.74-6.56c0-.48.31-.87.57-.87H406.9c.25,0,.42-.39.36-.87Z" transform="translate(-220.65 -91.6)"/><path class="cls-2" d="M423,168h-4.85c-.26,0-.6.34-.74.74l-8.66,24c-.14.41-.31.35-.37-.13l-.63-5.29c-.06-.48-.32-.87-.58-.87h-5.56c-.26,0-.42.39-.35.86l2.5,16.54a7.61,7.61,0,0,1,0,1.72l-1.09,8c-.06.47.1.86.36.86h5.5c.25,0,.52-.39.58-.86l1.09-8a9.12,9.12,0,0,1,.4-1.58l14.05-35.31c.16-.4.07-.71-.18-.71L423,168Z" transform="translate(-220.65 -91.6)"/><path class="cls-2" d="M378.79,188.7h0c0,.53-.29.92-.55.92h-7.05c-.25,0-.37-.31-.33-.7v0h0v0a1.74,1.74,0,0,0,0-.23c.68-3.39,2.05-5.62,4.63-5.62,2.9,0,3.47,2.69,3.27,5.71Zm-2.07-15.42c-9.05,0-11.2,10.41-12.4,20.92-1.21,10.7-1.1,20.72,8.27,20.72h2.63l6-.07c.26,0,.51-.4.56-.88l.38-3.51.07-.68.46-4.19c.05-.48-.12-.87-.38-.87h-8.42c-3.35,0-4.35-1.69-4-6.65h13.47c.22,0,.41-.28.49-.66a.78.78,0,0,0,0-.22h0c2-14.28,1.43-23.9-7.14-23.9Z" transform="translate(-220.65 -91.6)"/><path class="cls-2" d="M333.92,188.65l-.12.85h0l-1,6.82-1,6.82c-.07.47-.34.86-.6.86h-5.38c-4.08,0-5.07-6-4.08-15,1-9.12,2.94-14.79,7-15.36,5.49-.79,6.59,6.53,5.26,15Zm3.7,14.84s2.53-11.67,3.11-18.41c.79-9-1.6-22.11-10.81-22.11s-13.14,12.5-14.66,26.07.47,25.68,9.58,25.58l7.19-.05,6.71,0c.26,0,.52-.39.59-.86l1.17-8.45c.07-.48-.09-.87-.35-.87H339l-1.12,0c-.22,0-.35-.27-.32-.63a.63.63,0,0,1,0-.19Z" transform="translate(-220.65 -91.6)"/><path class="cls-2" d="M383,195.68c0,.32-.13.58-.31.58s-.3-.26-.3-.58.13-.59.3-.59S383,195.35,383,195.68Z" transform="translate(-220.65 -91.6)"/><path class="cls-2" d="M267.67,180.51c-2.53,6.88-2.22,15.84-.28,23.15,0,.18.09.35.14.52l.09.33a1.8,1.8,0,0,1,.05.19c0,.12.07.23.1.34s.13.4.19.6.07.22.1.33l.22.63.09.27c.1.28.2.57.31.85v0a.69.69,0,0,0,.05.13l.28.72c0,.08.07.17.11.25s.17.41.26.61l.1.22.36.79v0l.37.74.12.23.3.55.12.21c.13.24.27.47.4.7h0l.07.12c.12.19.24.39.37.58l.15.23c.1.16.2.31.31.46l.16.23.34.47.13.17,0,0a4.78,4.78,0,0,0,.34.42,1.24,1.24,0,0,0,.14.18c.17.21.35.41.52.61l.15.16.39.41.22.21a3.7,3.7,0,0,0,.28.28l.06.06.12.1a5.34,5.34,0,0,0,.44.39l.1.08c.17.15.34.28.52.41l.12.1.49.34.06,0,.55.34.13.07a2.84,2.84,0,0,0,.57.3c12.23,4.23,15.78-13.92,15.78-13.92-3,7.37-8.28,9.31-13.3,7.15-.19-.08-.37-.2-.56-.3l-.14-.08-.54-.33-.07,0-.48-.34-.13-.1-.52-.4-.1-.09-.43-.38-.13-.11-.33-.33-.23-.22-.4-.42-.13-.15c-.18-.19-.35-.4-.53-.6l-.14-.18-.37-.47-.12-.16-.35-.48c-.05-.07-.1-.15-.16-.22l-.31-.47-.14-.22c-.14-.21-.27-.41-.4-.63a.43.43,0,0,1,0-.07l-.42-.71-.12-.22c-.1-.18-.2-.36-.29-.55l-.12-.22c-.13-.24-.25-.49-.37-.74l0,0c-.12-.26-.25-.53-.37-.8a1.47,1.47,0,0,0-.1-.22c-.09-.21-.18-.42-.26-.63a1.6,1.6,0,0,1-.1-.23c-.11-.26-.21-.52-.31-.78-2.79-7.2-3.79-17.12-1.56-25.28" transform="translate(-220.65 -91.6)"/><path class="cls-2" d="M275.52,174.71c-1.83,5-1.73,11.65-.3,16.92a26.46,26.46,0,0,0,.81,2.56,13,13,0,0,0,.94,2.23c.13.27.27.54.41.8a2.12,2.12,0,0,0,.11.21c.13.25.27.5.41.73l0,0h0c.15.26.32.52.49.77l.11.16c.16.24.33.48.51.71v0l.24.29a1.71,1.71,0,0,0,.11.14c.12.15.25.3.38.44l.05.06.34.36.12.11.23.24,0,0,.49.43.1.08.41.31.17.12c.12.09.24.16.37.24l.16.1a2.63,2.63,0,0,0,.54.3c9.44,3,11.62-10.81,11.62-10.81-2,5.36-5.77,7.92-9.83,5.92l-.54-.29-.16-.1-.37-.24-.17-.12-.4-.31-.11-.09c-.17-.13-.33-.28-.5-.43l-.24-.24-.14-.14-.32-.33-.07-.08c-.13-.14-.26-.29-.38-.44l-.11-.14-.25-.31-.51-.71-.12-.17a26.87,26.87,0,0,1-3.85-10.41,29.49,29.49,0,0,1,.66-13" transform="translate(-220.65 -91.6)"/><path class="cls-2" d="M282.12,170.37a18.69,18.69,0,0,0-.43,10.06c.79,3.52,2.4,6.29,4.29,7.59l.23.16.11.06a2.79,2.79,0,0,0,.33.19c5.22,1.9,6.63-5.07,7-6.1-1.24,3.38-3.32,4.19-5.88,3a5.51,5.51,0,0,1-.61-.37,6.37,6.37,0,0,1-.74-.57,10.09,10.09,0,0,1-1.29-1.49,19,19,0,0,1-2.21-14.65" transform="translate(-220.65 -91.6)"/></g></svg>