<svg id="Camada_10" data-name="Camada 10" xmlns="http://www.w3.org/2000/svg" viewBox="0 0 290.85 241.76"><defs><style>.cls-1,.cls-4{fill:#131b2e;}.cls-1,.cls-3{stroke:#2feabb;stroke-miterlimit:10;}.cls-2{opacity:0.1;}.cls-3{fill:#2feabb;}.cls-5{opacity:0.8;}</style></defs><title>json</title><polygon class="cls-1" points="217.11 240.45 72.27 241.26 0.58 121.68 73.74 1.3 218.58 0.5 290.27 120.08 217.11 240.45"/><polygon class="cls-1" points="210.76 226.64 81.87 225.75 16.75 120.07 80.53 15.27 209.42 16.16 274.54 121.85 210.76 226.64"/><g class="cls-2"><path class="cls-3" d="M1964.3,432.19h-71.56c-2,0-3.61,1.38-3.61,4V547.48c0,.72,1.62,2.09,3.61,2.09h98.81c2,0,3.61-1.37,3.61-2.09V459.4c0-1.46-.23-1.93-.63-2.28l-28.69-24.39A2.42,2.42,0,0,0,1964.3,432.19Z" transform="translate(-1787.14 -364.26)"/><polygon class="cls-4" points="178.43 68.25 178.43 93.09 207.65 93.09 178.43 68.25"/><path class="cls-3" d="M1991.55,549.57h-98.81a3.37,3.37,0,0,1-3.61-3.07V513.94h106V546.5A3.37,3.37,0,0,1,1991.55,549.57Z" transform="translate(-1787.14 -364.26)"/><path class="cls-1" d="M1915.08,521.73v16.45a4.59,4.59,0,0,1-.65,2.51,4.7,4.7,0,0,1-1.71,1.63,7.58,7.58,0,0,1-2.48.86,17.07,17.07,0,0,1-2.89.25,14.89,14.89,0,0,1-1.73-.13,18.63,18.63,0,0,1-2.06-.4c-.71-.19-1.39-.39-2-.62a8.5,8.5,0,0,1-1.65-.77l1.72-2.32a5.16,5.16,0,0,0,1,.41c.42.14.87.28,1.37.4s1,.23,1.55.33a8.24,8.24,0,0,0,1.51.14,5.88,5.88,0,0,0,2.85-.58,2.22,2.22,0,0,0,1.13-2V521.73Z" transform="translate(-1787.14 -364.26)"/><path class="cls-1" d="M1935.2,537.49a4.81,4.81,0,0,1-.55,2.23,6.24,6.24,0,0,1-1.57,1.89,7.87,7.87,0,0,1-2.5,1.3,10.62,10.62,0,0,1-3.37.49c-.54,0-1.09,0-1.67-.07a15,15,0,0,1-1.73-.25,9.52,9.52,0,0,1-1.67-.47,5.9,5.9,0,0,1-1.37-.73l.71-2.47a8.91,8.91,0,0,0,1.19.45l1.5.4c.52.12,1,.22,1.55.3a9.46,9.46,0,0,0,1.45.11,5.25,5.25,0,0,0,3.16-.81,2.84,2.84,0,0,0,1.09-2.42,2.18,2.18,0,0,0-.77-1.67,8.41,8.41,0,0,0-1.94-1.24c-.78-.38-1.61-.75-2.51-1.12a15.14,15.14,0,0,1-2.53-1.32,7.34,7.34,0,0,1-2-1.79,4.22,4.22,0,0,1-.77-2.58,5,5,0,0,1,.61-2.49,5.65,5.65,0,0,1,1.63-1.85,7.82,7.82,0,0,1,2.39-1.16,10.14,10.14,0,0,1,2.89-.4,20.82,20.82,0,0,1,3.13.24,7.66,7.66,0,0,1,2.56.79c-.13.25-.29.52-.47.82s-.35.57-.5.83-.29.47-.41.64a2.1,2.1,0,0,1-.2.29,3.93,3.93,0,0,1-.46-.23,3.87,3.87,0,0,0-.72-.28,5.75,5.75,0,0,0-1.25-.21,15.25,15.25,0,0,0-2,0,4,4,0,0,0-1.28.33,4.51,4.51,0,0,0-1.08.68,2.88,2.88,0,0,0-.74.9,2,2,0,0,0-.27,1,2.37,2.37,0,0,0,.77,1.85,7.55,7.55,0,0,0,1.92,1.23c.77.35,1.6.7,2.5,1a13.89,13.89,0,0,1,2.51,1.22,6.65,6.65,0,0,1,1.94,1.79A4.58,4.58,0,0,1,1935.2,537.49Z" transform="translate(-1787.14 -364.26)"/><path class="cls-1" d="M1959.61,532.62a12.82,12.82,0,0,1-.79,4.7,9.25,9.25,0,0,1-2.19,3.38,9.41,9.41,0,0,1-3.27,2,12.5,12.5,0,0,1-8.19,0,9.12,9.12,0,0,1-5.47-5.42,14.32,14.32,0,0,1,0-9.38,9.26,9.26,0,0,1,2.2-3.37,9.39,9.39,0,0,1,3.27-2.05,12.33,12.33,0,0,1,8.19,0,9.58,9.58,0,0,1,3.27,2.05,9.37,9.37,0,0,1,2.19,3.37A12.71,12.71,0,0,1,1959.61,532.62Zm-10.45,8a6.82,6.82,0,0,0,2.38-.42,5.24,5.24,0,0,0,2-1.36,6.5,6.5,0,0,0,1.4-2.48,13.11,13.11,0,0,0,.54-3.74A12.63,12.63,0,0,0,1955,529a6.91,6.91,0,0,0-1.34-2.48,5,5,0,0,0-2-1.4,6.2,6.2,0,0,0-2.31-.43,7,7,0,0,0-2.38.4,5.06,5.06,0,0,0-2,1.36,6.74,6.74,0,0,0-1.4,2.48,12.3,12.3,0,0,0-.54,3.72,12.44,12.44,0,0,0,.53,3.67,6.75,6.75,0,0,0,1.34,2.48,5.27,5.27,0,0,0,2,1.4A6,6,0,0,0,1949.16,540.62Z" transform="translate(-1787.14 -364.26)"/><path class="cls-1" d="M1983.28,522.16v21.12h-4.12l-9.74-14.55v14.55h-4.11V522.16h4.11l9.74,14.56V522.16Z" transform="translate(-1787.14 -364.26)"/><path class="cls-4" d="M1921.19,472v-8.39a2.3,2.3,0,0,1,2.46-2.09,2.12,2.12,0,1,0,0-4.19c-4.07,0-7.39,2.82-7.39,6.28V472c0,2.31-2.22,4.19-4.94,4.19a2.12,2.12,0,1,0,0,4.19c2.72,0,4.94,1.88,4.94,4.19V493c0,3.47,3.32,6.29,7.39,6.29a2.13,2.13,0,1,0,0-4.2,2.3,2.3,0,0,1-2.46-2.09v-8.39a7.87,7.87,0,0,0-3.41-6.28A7.9,7.9,0,0,0,1921.19,472Z" transform="translate(-1787.14 -364.26)"/><ellipse class="cls-4" cx="153.77" cy="106.71" rx="3.7" ry="3.14"/><path class="cls-4" d="M1970.5,476.21c-2.72,0-4.93-1.88-4.93-4.19v-8.39c0-3.46-3.32-6.28-7.4-6.28a2.12,2.12,0,1,0,0,4.19,2.3,2.3,0,0,1,2.47,2.09V472a7.9,7.9,0,0,0,3.41,6.29,7.87,7.87,0,0,0-3.41,6.28V493a2.3,2.3,0,0,1-2.47,2.09,2.13,2.13,0,1,0,0,4.2c4.08,0,7.4-2.82,7.4-6.29v-8.39c0-2.31,2.21-4.19,4.93-4.19a2.12,2.12,0,1,0,0-4.19Z" transform="translate(-1787.14 -364.26)"/><path class="cls-4" d="M1940.91,482.5a2.3,2.3,0,0,0-2.46,2.09v6.29a2.5,2.5,0,0,0,4.93,0v-6.29A2.3,2.3,0,0,0,1940.91,482.5Z" transform="translate(-1787.14 -364.26)"/></g><g class="cls-5"><path class="cls-3" d="M1958.24,426.37h-71.56c-2,0-3.61,1.38-3.61,4V541.66c0,.72,1.61,2.09,3.61,2.09h98.81c2,0,3.61-1.37,3.61-2.09V453.58c0-1.46-.23-1.93-.64-2.28l-28.69-24.39A2.42,2.42,0,0,0,1958.24,426.37Z" transform="translate(-1787.14 -364.26)"/><polygon class="cls-4" points="172.37 62.43 172.37 87.27 201.58 87.27 172.37 62.43"/><path class="cls-3" d="M1985.49,543.75h-98.81a3.37,3.37,0,0,1-3.61-3.06V508.12h106v32.57A3.37,3.37,0,0,1,1985.49,543.75Z" transform="translate(-1787.14 -364.26)"/><path class="cls-1" d="M1909,515.91v16.45a4.59,4.59,0,0,1-.64,2.51,4.81,4.81,0,0,1-1.72,1.63,7.58,7.58,0,0,1-2.48.86,17,17,0,0,1-2.88.25,15,15,0,0,1-1.74-.13,18.47,18.47,0,0,1-2-.4c-.71-.19-1.39-.39-2-.62a8.5,8.5,0,0,1-1.65-.77l1.71-2.32a5.63,5.63,0,0,0,1,.41c.41.14.87.28,1.36.4s1,.23,1.55.33a8.34,8.34,0,0,0,1.52.14,5.93,5.93,0,0,0,2.85-.58,2.23,2.23,0,0,0,1.13-2V515.91Z" transform="translate(-1787.14 -364.26)"/><path class="cls-1" d="M1929.14,531.67a4.82,4.82,0,0,1-.56,2.23,6,6,0,0,1-1.57,1.89,7.71,7.71,0,0,1-2.49,1.3,10.62,10.62,0,0,1-3.37.49c-.54,0-1.1,0-1.67-.07a15.19,15.19,0,0,1-1.74-.25,10,10,0,0,1-1.67-.47,5.63,5.63,0,0,1-1.36-.73l.7-2.47a8.3,8.3,0,0,0,1.2.45c.48.14,1,.27,1.5.4s1,.22,1.55.3a9.46,9.46,0,0,0,1.45.11,5.23,5.23,0,0,0,3.15-.81,2.84,2.84,0,0,0,1.1-2.42,2.16,2.16,0,0,0-.78-1.67,8.2,8.2,0,0,0-1.94-1.24c-.77-.38-1.61-.75-2.51-1.12a15.54,15.54,0,0,1-2.53-1.32,7.45,7.45,0,0,1-1.95-1.79,4.16,4.16,0,0,1-.78-2.58,5.1,5.1,0,0,1,.61-2.49,5.78,5.78,0,0,1,1.64-1.85,7.71,7.71,0,0,1,2.39-1.16,10.07,10.07,0,0,1,2.88-.4,21,21,0,0,1,3.14.24,8.06,8.06,0,0,1,2.56.79c-.14.25-.29.52-.47.82l-.51.83c-.15.26-.29.47-.4.64l-.2.29a2.81,2.81,0,0,1-.46-.23,3.74,3.74,0,0,0-.73-.28,5.16,5.16,0,0,0-1.24-.2,15,15,0,0,0-2,0,4.09,4.09,0,0,0-1.29.33,4.94,4.94,0,0,0-1.08.68,3,3,0,0,0-.74.9,2.06,2.06,0,0,0-.27,1,2.38,2.38,0,0,0,.78,1.85,7.55,7.55,0,0,0,1.92,1.23c.76.36,1.59.7,2.49,1a14.69,14.69,0,0,1,2.52,1.22,6.75,6.75,0,0,1,1.93,1.79A4.58,4.58,0,0,1,1929.14,531.67Z" transform="translate(-1787.14 -364.26)"/><path class="cls-1" d="M1953.55,526.8a12.82,12.82,0,0,1-.8,4.7,9.12,9.12,0,0,1-2.19,3.38,9.23,9.23,0,0,1-3.27,2,12.5,12.5,0,0,1-8.19,0,9.23,9.23,0,0,1-3.27-2,9.33,9.33,0,0,1-2.19-3.38,14.32,14.32,0,0,1,0-9.38,9.37,9.37,0,0,1,2.19-3.37,9.54,9.54,0,0,1,3.27-2,12.33,12.33,0,0,1,8.19,0,9.39,9.39,0,0,1,3.27,2,9.24,9.24,0,0,1,2.19,3.37A12.71,12.71,0,0,1,1953.55,526.8Zm-10.46,8a6.74,6.74,0,0,0,2.38-.42,5.09,5.09,0,0,0,2-1.36,6.25,6.25,0,0,0,1.4-2.48,12.42,12.42,0,0,0,.54-3.73,12.68,12.68,0,0,0-.52-3.66,6.92,6.92,0,0,0-1.35-2.48,5,5,0,0,0-2-1.4,6.21,6.21,0,0,0-2.32-.43,6.94,6.94,0,0,0-2.37.4,5,5,0,0,0-2,1.36,6.47,6.47,0,0,0-1.4,2.48,12.3,12.3,0,0,0-.54,3.72,12.47,12.47,0,0,0,.52,3.67,6.76,6.76,0,0,0,1.35,2.48,5.29,5.29,0,0,0,2,1.41A6.24,6.24,0,0,0,1943.09,534.8Z" transform="translate(-1787.14 -364.26)"/><path class="cls-1" d="M1977.21,516.34v21.12h-4.11l-9.74-14.55v14.55h-4.12V516.34h4.12l9.74,14.56V516.34Z" transform="translate(-1787.14 -364.26)"/><path class="cls-4" d="M1915.12,466.2v-8.39a2.31,2.31,0,0,1,2.47-2.09,2.12,2.12,0,1,0,0-4.19c-4.08,0-7.4,2.82-7.4,6.28v8.39c0,2.31-2.21,4.19-4.93,4.19a2.12,2.12,0,1,0,0,4.19c2.72,0,4.93,1.88,4.93,4.19v8.39c0,3.47,3.32,6.29,7.4,6.29a2.12,2.12,0,1,0,0-4.19,2.32,2.32,0,0,1-2.47-2.1v-8.39a7.88,7.88,0,0,0-3.4-6.28A7.89,7.89,0,0,0,1915.12,466.2Z" transform="translate(-1787.14 -364.26)"/><ellipse class="cls-4" cx="147.71" cy="100.89" rx="3.7" ry="3.14"/><path class="cls-4" d="M1964.44,470.39c-2.72,0-4.93-1.88-4.93-4.19v-8.39c0-3.46-3.32-6.28-7.4-6.28a2.12,2.12,0,1,0,0,4.19,2.31,2.31,0,0,1,2.47,2.09v8.39a7.89,7.89,0,0,0,3.4,6.29,7.88,7.88,0,0,0-3.4,6.28v8.39a2.32,2.32,0,0,1-2.47,2.1,2.12,2.12,0,1,0,0,4.19c4.08,0,7.4-2.82,7.4-6.29v-8.39c0-2.31,2.21-4.19,4.93-4.19a2.12,2.12,0,1,0,0-4.19Z" transform="translate(-1787.14 -364.26)"/><path class="cls-4" d="M1934.85,476.68a2.31,2.31,0,0,0-2.47,2.09v6.29a2.5,2.5,0,0,0,4.94,0v-6.29A2.31,2.31,0,0,0,1934.85,476.68Z" transform="translate(-1787.14 -364.26)"/></g></svg>