<svg id="Camada_10" data-name="Camada 10" xmlns="http://www.w3.org/2000/svg" viewBox="0 0 247.72 205.91"><defs><style>.cls-1{fill:#131b2e;}.cls-1,.cls-3{stroke:#2feabb;stroke-miterlimit:10;}.cls-2{fill:aqua;opacity:0.8;}.cls-3{fill:#2feabb;}</style></defs><title>mysql</title><polygon class="cls-1" points="184.87 204.72 61.6 205.41 0.58 103.64 62.84 1.19 186.12 0.5 247.13 102.27 184.87 204.72"/><polygon class="cls-1" points="179.46 192.97 69.76 192.21 14.35 102.27 68.63 13.07 178.33 13.83 233.75 103.78 179.46 192.97"/><path class="cls-2" d="M644.09,883.35h5.16V863l8.1,17.73c.89,2.13,2.22,2.93,4.8,2.93s3.74-.8,4.72-2.93l8-17.73v20.39H680V863a3.16,3.16,0,0,0-2.49-3.46c-3.91-1.15-6.58-.18-7.74,2.48L662,879.54,654.32,862c-1.15-2.66-3.82-3.63-7.74-2.48a3.11,3.11,0,0,0-2.49,3.46v20.39Z" transform="translate(-599.97 -758.35)"/><path class="cls-2" d="M684.3,866.77h5.16V878c0,.62.18,2,3,2.12h11.3V866.68h5.16V885c0,4.52-5.6,5.5-8.18,5.5H684.48v-3.46h16.37c3.29-.36,2.93-2,2.93-2.57v-1.33h-11c-5.16,0-8.45-2.31-8.45-4.88,0-.27.18-11.44,0-11.53Z" transform="translate(-599.97 -758.35)"/><path class="cls-2" d="M795.85,853.74a19.87,19.87,0,0,0-7.74,1.06c-.62.27-1.51.27-1.6,1,.36.35.36.8.62,1.24a8.93,8.93,0,0,0,2,2.39c.8.62,1.69,1.24,2.58,1.87,1.51,1,3.29,1.5,4.8,2.48a26.86,26.86,0,0,1,2.58,1.86,6.68,6.68,0,0,0,1.25,1.06v-.08c-.27-.36-.36-.89-.63-1.25a13.85,13.85,0,0,1-1.15-1.15,19.56,19.56,0,0,0-4.09-4c-1.25-.89-4.1-2-4.54-3.55l-.09-.08a16.11,16.11,0,0,0,2.76-.62c1.33-.36,2.58-.27,4-.63l1.87-.53v-.35c-.71-.71-1.25-1.69-2-2.31a49.72,49.72,0,0,0-6.58-4.87,43.29,43.29,0,0,0-4.09-1.95c-.45-.27-1.25-.36-1.51-.71a14,14,0,0,1-1.61-3c-1.15-2.22-2.22-4.61-3.29-6.92a41.65,41.65,0,0,0-2-4.52c-4.09-6.74-8.54-10.81-15.39-14.81a21.37,21.37,0,0,0-5.07-1.59c-1,0-2-.09-2.94-.18-.62-.26-1.24-1.06-1.87-1.42-2.22-1.42-8.09-4.52-9.78-.44-1.07,2.57,1.6,5.14,2.49,6.38a22.37,22.37,0,0,1,2,2.93c.26.71.35,1.42.62,2.13a55,55,0,0,0,2,5.32,18.39,18.39,0,0,0,1.52,2.48c.35.44.89.62,1,1.33a10.1,10.1,0,0,0-.88,2.93c-1.43,4.43-.89,10,1.15,13.3.62,1,2.14,3.19,4.18,2.3,1.78-.71,1.43-2.92,1.87-5,.09-.45,0-.8.27-1.07v.09c.53,1.07,1.07,2.22,1.6,3.28a22.5,22.5,0,0,0,5.16,5.32c1,.71,1.69,1.95,2.93,2.4v-.09h-.09a7.08,7.08,0,0,0-.88-.8,16.87,16.87,0,0,1-2-2.39,54.28,54.28,0,0,1-4.45-7.19c-.62-1.24-1.15-2.57-1.69-3.81-.27-.44-.27-1.15-.62-1.42a11.41,11.41,0,0,0-1.87,2.66,23.9,23.9,0,0,0-1.07,5.94c-.17,0-.09,0-.17.09-1.25-.35-1.69-1.59-2.23-2.75a17,17,0,0,1-.35-10.55c.26-.8,1.51-3.46,1-4.25-.26-.71-1.06-1.16-1.51-1.78a11.79,11.79,0,0,1-1.42-2.57c-1-2.22-1.42-4.7-2.49-6.92a18.32,18.32,0,0,0-2-3,27.25,27.25,0,0,1-2.22-3.1c-.18-.45-.45-1.16-.18-1.6a.67.67,0,0,1,.53-.53c.54-.45,2,.09,2.49.35a23.48,23.48,0,0,1,3.92,2c.53.36,1.15,1.16,1.87,1.33h.8c1.24.27,2.66.09,3.91.45a25.68,25.68,0,0,1,5.69,2.75,35.09,35.09,0,0,1,12.37,13.56c.44.89.71,1.78,1.07,2.66.8,1.95,1.86,3.9,2.66,5.85a23.44,23.44,0,0,0,2.85,5.32c.62.8,2.94,1.25,4.09,1.69.8.35,2,.71,2.76,1.06,1.33.8,2.67,1.78,4,2.66.63.54,2.67,1.51,2.76,2.31Z" transform="translate(-599.97 -758.35)"/><path class="cls-2" d="M755.38,819.42a7.07,7.07,0,0,0-1.6.18v.09h.08c.36.62.89,1.06,1.25,1.6a17.47,17.47,0,0,1,.89,1.86l.09-.09a2.25,2.25,0,0,0,.8-1.95c-.27-.27-.27-.53-.45-.8-.26-.44-.8-.62-1.06-.89Z" transform="translate(-599.97 -758.35)"/><path class="cls-3" d="M712.94,883.35h14.95a11.89,11.89,0,0,0,4.8-1c2.23-1.07,3.29-2.4,3.29-4.26v-3.81c0-1.51-1.24-2.84-3.64-3.81a13.62,13.62,0,0,0-4.45-.71h-6.23c-2.13,0-3.11-.62-3.38-2v-3.19c.27-1.07.8-1.33,2.67-1.51h15.21v-3.46h-14.5a12.17,12.17,0,0,0-4.18.44c-3,1-4.45,2.49-4.45,5.15V868c0,2.31,2.58,4.35,7,4.79h7.38c1.61.18,2.32.45,2.85,1.07a1.11,1.11,0,0,1,.36,1v3a2.06,2.06,0,0,1-.71,1.24,3.21,3.21,0,0,1-2.23.71H712.94v3.54Z" transform="translate(-599.97 -758.35)"/><path class="cls-3" d="M768.27,877.32q0,5.32,8,5.86c.53,0,1,.09,1.51.09h13.52v-3.46H777.7c-3,0-4.18-.71-4.18-2.57V859.5h-5.16l-.09,17.82Z" transform="translate(-599.97 -758.35)"/><path class="cls-3" d="M739.28,877.5V865.27c0-3.11,2.22-5.06,6.58-5.59.44,0,1-.09,1.42-.09h9.88a8.56,8.56,0,0,1,1.51.09c4.36.62,6.49,2.48,6.49,5.59V877.5c0,2.57-.89,3.9-3,4.79l5.07,4.61h-6l-4.09-3.72-4.19.26h-5.51a13.06,13.06,0,0,1-3-.35c-3.55-1-5.15-2.75-5.15-5.59Zm5.6-.26c0,.17.09.35.09.53.27,1.42,1.6,2.21,3.65,2.21h4.71l-4.27-3.9h6l3.74,3.37a2.51,2.51,0,0,0,1.33-1.68V865.09c-.27-1.33-1.6-2.13-3.65-2.13h-7.82c-2.32,0-3.83,1-3.83,2.57l.09,11.71Z" transform="translate(-599.97 -758.35)"/><path class="cls-3" d="M793.63,883.35h.71v-2.92h1v-.62h-2.76v.62h1.07v2.92Zm5.78,0h.71V879.9h-1.07l-.89,2.39-1-2.39h-1.07v3.45h.71v-2.66h0l1,2.66h.53l1-2.66h0l.09,2.66Z" transform="translate(-599.97 -758.35)"/></svg>