<svg id="Camada_10" data-name="Camada 10" xmlns="http://www.w3.org/2000/svg" viewBox="0 0 290.85 241.76"><defs><style>.cls-1{fill:#131b2e;}.cls-1,.cls-2{stroke:#2feabb;stroke-miterlimit:10;}.cls-2{fill:#2feabb;}.cls-3{fill:#11162a;}</style></defs><title>NET</title><polygon class="cls-1" points="217.11 240.45 72.27 241.26 0.58 121.68 73.74 1.3 218.58 0.5 290.27 120.08 217.11 240.45"/><polygon class="cls-1" points="210.76 226.64 81.87 225.75 16.75 120.07 80.53 15.27 209.42 16.16 274.54 121.85 210.76 226.64"/><ellipse class="cls-2" cx="146.34" cy="120.13" rx="88.92" ry="75.19"/><ellipse class="cls-3" cx="77.71" cy="128.94" rx="4.71" ry="3.69"/><path class="cls-3" d="M1198.23,2049.61h-7.32l-26.23-34.5a14.11,14.11,0,0,1-1.63-2.72h-.22a35.28,35.28,0,0,1,.29,5.95v31.27h-6v-43.28h7.74l25.52,34c.73.93,1.41,1.9,2,2.9h.14a38.81,38.81,0,0,1-.35-6.37v-30.48h6Z" transform="translate(-1065.64 -1917.76)"/><path class="cls-3" d="M1238.61,2049.61h-27v-43.28h25.87v4.58h-19.87v14.4H1236v4.56h-18.4V2045h21.06Z" transform="translate(-1065.64 -1917.76)"/><path class="cls-3" d="M1278.68,2010.91H1264v38.7h-6v-38.7h-14.67v-4.58h35.35Z" transform="translate(-1065.64 -1917.76)"/><path class="cls-3" d="M1196,2078.86a15.14,15.14,0,0,1-6.42,1.2,11.13,11.13,0,0,1-7.94-2.81,9.67,9.67,0,0,1-3-7.38,10.13,10.13,0,0,1,3.35-7.93,12.28,12.28,0,0,1,8.51-3,15.4,15.4,0,0,1,5.47.82v2.55a12.32,12.32,0,0,0-5.5-1.23,9.06,9.06,0,0,0-6.49,2.36,8.23,8.23,0,0,0-2.5,6.29,7.84,7.84,0,0,0,2.33,5.95,8.49,8.49,0,0,0,6.09,2.21,12.48,12.48,0,0,0,6.06-1.34Z" transform="translate(-1065.64 -1917.76)"/><path class="cls-3" d="M1207.33,2080.06a8.25,8.25,0,0,1-5.87-2,7.14,7.14,0,0,1-2.2-5.43,7.29,7.29,0,0,1,2.28-5.73,8.94,8.94,0,0,1,6.18-2.07,8,8,0,0,1,5.79,2,8.29,8.29,0,0,1-.17,11.17A8.43,8.43,0,0,1,1207.33,2080.06Zm.19-13.32a5.41,5.41,0,0,0-4,1.53,5.84,5.84,0,0,0-1.49,4.24,5.51,5.51,0,0,0,1.51,4.1,5.46,5.46,0,0,0,4,1.5,5.17,5.17,0,0,0,4-1.47,5.83,5.83,0,0,0,1.39-4.18,5.93,5.93,0,0,0-1.39-4.22,5.26,5.26,0,0,0-4-1.5Z" transform="translate(-1065.64 -1917.76)"/><path class="cls-3" d="M1228.47,2067.48a3.6,3.6,0,0,0-2-.47,3.53,3.53,0,0,0-2.84,1.41,6,6,0,0,0-1.13,3.85v7.44h-2.66v-14.57h2.66v3h.07a5,5,0,0,1,1.73-2.41,4.24,4.24,0,0,1,2.61-.86,4.94,4.94,0,0,1,1.58.2Z" transform="translate(-1065.64 -1917.76)"/><path class="cls-3" d="M1244.25,2073h-11.71a5.05,5.05,0,0,0,1.49,3.76,5.61,5.61,0,0,0,3.92,1.33,8.86,8.86,0,0,0,5.15-1.64v2.21a10.72,10.72,0,0,1-5.78,1.4,6.95,6.95,0,0,1-7.54-7.59,7.42,7.42,0,0,1,7.15-7.69h.5a6.65,6.65,0,0,1,5,1.85,7.1,7.1,0,0,1,1.78,5.15Zm-2.72-2a4.29,4.29,0,0,0-1.11-3.15,4,4,0,0,0-3-1.13,4.6,4.6,0,0,0-3.19,1.18,5.19,5.19,0,0,0-1.64,3.1Z" transform="translate(-1065.64 -1917.76)"/></svg>