<svg id="Camada_10" data-name="Camada 10" xmlns="http://www.w3.org/2000/svg" viewBox="0 0 290.85 241.76"><defs><style>.cls-1{fill:#131b2e;}.cls-1,.cls-2{stroke:#2feabb;stroke-miterlimit:10;}.cls-2{fill:#2feabb;}.cls-3{fill:#242238;}</style></defs><title>PS</title><polygon class="cls-1" points="217.11 240.45 72.27 241.26 0.58 121.68 73.74 1.3 218.58 0.5 290.27 120.08 217.11 240.45"/><polygon class="cls-1" points="210.76 226.64 81.87 225.75 16.75 120.07 80.53 15.27 209.42 16.16 274.54 121.85 210.76 226.64"/><rect class="cls-2" x="95.14" y="73.06" width="110.82" height="109.41"/><rect class="cls-3" x="100.01" y="77.87" width="101.07" height="99.78"/><path class="cls-2" d="M1220.73,1186.72c0-.38.06-.53.39-.53,2.49-.07,7.41-.15,12.39-.15,12.86,0,17.76,7.39,17.82,16.12,0,12-9,16.5-18.67,16.5h-4.07v17.1c0,.45-.13.6-.45.6h-7c-.32,0-.45-.15-.45-.52v-49.12Zm7.87,24.64a32.28,32.28,0,0,0,4.26.15c5.18,0,10.16-1.46,10.16-9,0-6-3.34-9.12-9.51-9.12-2.55,0-4.39.08-4.91.15Z" transform="translate(-1098.64 -1087.23)"/><path class="cls-2" d="M1267.7,1205.74c-3.16,0-4,2-4,3.38,0,1.8.83,2.78,5.67,5,6.63,3.16,9.47,5.95,9.47,11.36,0,7.53-5,11.81-12,11.81-3.42,0-7.73-.32-10.43-2.27a.78.78,0,0,1-.39-.76v-6.92c0-.38.26-.53.45-.38a17.09,17.09,0,0,0,10.44,3.19c3,0,4-2,4-3.6,0-2-.72-3.09-5.36-5.27-6.64-3.17-9.4-5.88-9.4-11.38,0-6.09,4.63-11.13,12.23-11.13,3.93,0,6.71.1,8.51,1.31a1.11,1.11,0,0,1,.39,1v6.17c0,.45-.26.68-.58.45C1274.34,1206.21,1271.05,1205.74,1267.7,1205.74Z" transform="translate(-1098.64 -1087.23)"/></svg>