<svg id="Camada_10" data-name="Camada 10" xmlns="http://www.w3.org/2000/svg" viewBox="0 0 235.07 195.39"><defs><style>.cls-1,.cls-3{fill:#131b2e;}.cls-1,.cls-2{stroke:#2feabb;stroke-miterlimit:10;}.cls-2{fill:#2feabb;opacity:0.8;}</style></defs><title>php</title><polygon class="cls-1" points="175.42 194.24 58.47 194.89 0.58 98.35 59.65 1.15 176.6 0.5 234.48 97.05 175.42 194.24"/><polygon class="cls-1" points="170.29 183.09 66.21 182.38 13.64 97.04 65.14 12.43 169.21 13.15 221.78 98.48 170.29 183.09"/><path class="cls-2" d="M1060.84,470.78a48.83,48.83,0,0,1-91.14,24.37,48.83,48.83,0,1,1,91.14-24.37Z" transform="translate(-895.62 -372.42)"/><path class="cls-3" d="M988,456H970l-5.13,27.72a48.61,48.61,0,0,0,4.79,11.48h1.67l2-10.74h9.88c12,0,15.26-10.8,16-16.11A11,11,0,0,0,988,456Zm2.61,13.25c-.45,3-2.67,9.13-9.49,9.13h-6.67l3-16.14h6.79C990.86,462.19,991.07,466.19,990.63,469.2Z" transform="translate(-895.62 -372.42)"/><path class="cls-3" d="M1058.92,457.21a11.72,11.72,0,0,0-5.45-1.26h-18l-7.24,39.2h8.57l2-10.74h9.88a14.24,14.24,0,0,0,11.39-5,49.25,49.25,0,0,0,.77-8.65A48.63,48.63,0,0,0,1058.92,457.21Zm-2.84,12c-.44,3-2.66,9.13-9.48,9.13h-6.67l3-16.14h6.79C1056.32,462.19,1056.52,466.19,1056.08,469.2Z" transform="translate(-895.62 -372.42)"/><path class="cls-3" d="M1022.17,456.08h-10.42l2-10.58h-8.54l-7.24,39.2h8.53l4.17-22.54h5.46c3.62,0,6.08.78,5.56,4.14s-3.49,18.24-3.49,18.24h8.66s3.37-16.56,3.88-21.22S1027,456.08,1022.17,456.08Z" transform="translate(-895.62 -372.42)"/></svg>