<svg xmlns="http://www.w3.org/2000/svg" xmlns:xlink="http://www.w3.org/1999/xlink" id="Camada_10" x="0" y="0" version="1.1" viewBox="0 0 290.9 241.8" style="enable-background:new 0 0 290.9 241.8" xml:space="preserve"><style type="text/css">.st0,.st1{fill:#131b2e;stroke:#2feabb;stroke-miterlimit:10}.st1{fill:#2feabb}.st2{fill:#34495e}</style><title>SERVER</title><polygon points="217.1 240.4 72.3 241.3 .6 121.7 73.7 1.3 218.6 .5 290.3 120.1" class="st0"/><polygon points="210.8 226.6 81.9 225.8 16.8 120.1 80.5 15.3 209.4 16.2 274.5 121.8" class="st0"/><g><g><path d="M0.8-56.8l-12.6-21.8l-12.6,21.8h-41.9l54.5-94.4l54.5,94.4H0.8z" class="st1" transform="matrix(1.3333 0 0 -1.3333 -76.311 313.34) translate(178.06 235.01)"/></g><g><path d="M0.8-56.8l-12.6-21.8l-12.6,21.8h-20.1l32.7-56.7L21-56.8H0.8z" class="st2" transform="matrix(1.3333 0 0 -1.3333 -76.311 313.34) translate(178.06 235.01)"/></g></g></svg>