<?xml version="1.0" encoding="utf-8"?>
<!-- Generator: Adobe Illustrator 24.0.1, SVG Export Plug-In . SVG Version: 6.00 Build 0)  -->
<svg version="1.1" id="Camada_10" xmlns="http://www.w3.org/2000/svg" xmlns:xlink="http://www.w3.org/1999/xlink" x="0px" y="0px"
	 viewBox="0 0 290.9 241.8" style="enable-background:new 0 0 290.9 241.8;" xml:space="preserve">
<style type="text/css">
	.st0{fill:#131B2E;stroke:#2FEABB;stroke-miterlimit:10;}
	.st1{fill:#2FEABB;stroke:#2FEABB;stroke-miterlimit:10;}
	.st2{fill:#34495E;}
</style>
<title>SERVER</title>
<polygon class="st0" points="217.1,240.4 72.3,241.3 0.6,121.7 73.7,1.3 218.6,0.5 290.3,120.1 "/>
<polygon class="st0" points="210.8,226.6 81.9,225.8 16.8,120.1 80.5,15.3 209.4,16.2 274.5,121.8 "/>
<g transform="matrix(1.3333 0 0 -1.3333 -76.311 313.34)">
	<g transform="translate(178.06 235.01)">
		<path class="st1" d="M0.8-56.8l-12.6-21.8l-12.6,21.8h-41.9l54.5-94.4l54.5,94.4H0.8z"/>
	</g>
	<g transform="translate(178.06 235.01)">
		<path class="st2" d="M0.8-56.8l-12.6-21.8l-12.6,21.8h-20.1l32.7-56.7L21-56.8H0.8z"/>
	</g>
</g>
</svg>
