<svg id="Camada_10" data-name="Camada 10" xmlns="http://www.w3.org/2000/svg" viewBox="0 0 238.9 213.09"><defs><style>.cls-1{fill:#131b2e;}.cls-1,.cls-2{stroke:#2feabb;stroke-miterlimit:10;}.cls-2{fill:#2feabb;}</style></defs><title>sass</title><polygon class="cls-1" points="178.29 211.88 59.41 212.59 0.57 107.25 60.61 1.21 179.49 0.5 238.33 105.84 178.29 211.88"/><polygon class="cls-1" points="173.08 199.72 67.29 198.93 13.84 105.83 66.19 13.52 171.98 14.3 225.42 107.4 173.08 199.72"/><g id="_288-sass" data-name="288-sass"><path class="cls-2" d="M305.41,312.85a28.4,28.4,0,0,0-13.25,3.31c-1.34-2.91-2.74-5.46-3-7.37a21.31,21.31,0,0,1-.25-6.21,54.4,54.4,0,0,1,1.74-6.67c0-.27-.32-1.61-3.27-1.64s-5.48.61-5.78,1.45a33.67,33.67,0,0,0-1.21,4.68c-.52,2.87-5.89,13.12-8.93,18.46a19.87,19.87,0,0,1-2-5.39,20.9,20.9,0,0,1-.25-6.2,57.08,57.08,0,0,1,1.73-6.67c0-.27-.32-1.62-3.26-1.65s-5.48.62-5.78,1.45-.62,2.8-1.21,4.68-7.75,18.95-9.62,23.39c-1,2.26-1.78,4.07-2.37,5.3l-.21.41c.07-.12.11-.24.11-.19-.5,1.05-.8,1.64-.8,1.64v0c-.38.79-.82,1.5-1,1.5s-.44-2.06.07-4.88c1.07-5.93,3.6-15.15,3.58-15.47s.48-1.76-1.67-2.62a2.56,2.56,0,0,0-3,.54c-.18,0-.32.49-.32.49s2.31-10.4-4.43-10.4c-4.2,0-10.05,5-12.93,9.44L218.25,320l-4.73,2.8-.32-.37c-8.18-9.36-23.27-16-22.63-28.56.22-4.59,1.71-16.62,29-31.23,22.38-12,40.29-8.68,43.37-1.38,4.43,10.42-9.57,29.81-32.82,32.61-8.86,1.05-13.52-2.62-14.69-4s-1.39-1.52-1.85-1.25c-.75.44-.27,1.72,0,2.48.69,1.94,3.54,5.37,8.41,7.08,4.27,1.5,14.66,2.33,27.22-2.89,14.12-5.83,25.11-22.09,21.89-35.69-3.29-13.83-24.65-18.37-44.86-10.67-12,4.59-25.06,11.79-34.43,21.18-11.12,11.18-12.9,20.92-12.17,25,2.6,14.43,21.15,23.85,28.57,30.81l-1,.61c-3.73,2-17.86,9.93-21.41,18.32-4,9.51.67,16.33,3.73,17.26,9.55,2.84,19.32-2.28,24.57-10.69s4.62-19.39,2.2-24.39c0-.08-.07-.13-.09-.2l2.92-1.84c1.9-1.2,3.75-2.3,5.37-3.26a40.11,40.11,0,0,0-1.92,10.44c-.41,5.4,1.67,12.38,4.36,15.13a4.6,4.6,0,0,0,3.52,1.23c3.15,0,4.57-2.8,6.14-6.13,1.94-4.07,3.66-8.81,3.66-8.81s-2.15,12.8,3.72,12.8c2.15,0,4.29-3,5.25-4.48v0l.16-.29c.23-.37.35-.59.35-.59V341c.86-1.59,2.76-5.24,5.61-11.27,3.71-7.8,7.25-17.53,7.25-17.53a52.76,52.76,0,0,0,1.41,6.32,62.4,62.4,0,0,0,3.06,7.36c-.87,1.27-1.39,2-1.39,2a.1.1,0,0,0,0,.05c-.68,1-1.46,2-2.26,3.06-2.92,3.73-6.4,8-6.85,9.22-.55,1.45-.41,2.52.64,3.36a5.22,5.22,0,0,0,3.58.61,14.87,14.87,0,0,0,5.37-1.32,18.52,18.52,0,0,0,4.62-2.6,11.38,11.38,0,0,0,4.43-9.76,21.38,21.38,0,0,0-1.67-6.91l.78-1.23a132.62,132.62,0,0,0,8-14.85,52.35,52.35,0,0,0,1.42,6.32,45,45,0,0,0,2.6,6.3,26.88,26.88,0,0,0-7.79,10.81c-1.69,5.23-.36,7.58,2.13,8.12a7.23,7.23,0,0,0,3.9-.86,17.8,17.8,0,0,0,4.94-2.72c2.85-2.26,5.62-5.42,5.43-9.71a19.21,19.21,0,0,0-1.23-5.74A26.2,26.2,0,0,1,308,318.25c12.72,1.59,15.21,10.12,14.73,13.68a9,9,0,0,1-4,6.13c-.9.59-1.17.81-1.1,1.25.11.64.52.61,1.28.46a10.43,10.43,0,0,0,6.92-9.48c.36-8.34-7.1-17.51-20.33-17.44Zm-98.06,35.48c-4.2,4.93-10.09,6.79-12.63,5.22-2.72-1.69-1.64-8.95,3.54-14.19a68.73,68.73,0,0,1,9.92-7.95l2.6-1.69.27-.17c.21-.15.44-.27.67-.42a20.61,20.61,0,0,1-4.37,19.2Zm30.7-22.41c-1.46,3.85-4.54,13.66-6.42,13.14-1.59-.44-2.58-7.92-.32-15.27a34.71,34.71,0,0,1,5-9.83c2.3-2.77,4.84-3.65,5.43-2.55.8,1.44-2.78,12.11-3.7,14.51Zm25.36,13c-.62.34-1.19.56-1.47.39s.26-.59.26-.59,3.17-3.65,4.43-5.32c.73-1,1.57-2.13,2.49-3.41,0,.12,0,.25,0,.39C269.12,334.77,265.19,337.74,263.41,338.92ZM283,334.13c-.46-.34-.39-1.49,1.14-5.07a18.92,18.92,0,0,1,4.34-6,9.62,9.62,0,0,1,.43,2.65,8.51,8.51,0,0,1-5.91,8.43Z" transform="translate(-124.61 -203.26)"/></g></svg>