<svg id="Camada_10" data-name="Camada 10" xmlns="http://www.w3.org/2000/svg" viewBox="0 0 290.85 241.76"><defs><style>.cls-1{fill:#131b2e;stroke:#2feabb;stroke-miterlimit:10;}.cls-2{fill:#2feabb;}</style></defs><title>SERVER</title><polygon class="cls-1" points="217.11 240.45 72.27 241.26 0.58 121.68 73.74 1.3 218.58 0.5 290.27 120.08 217.11 240.45"/><polygon class="cls-1" points="210.76 226.64 81.87 225.75 16.75 120.07 80.53 15.27 209.42 16.16 274.54 121.85 210.76 226.64"/><path class="cls-2" d="M1346.47,1649.86c-.81,0-1.83,0-2.7,0a203,203,0,0,1-32.46-4.62,109.52,109.52,0,0,1-15.2-5.09c-7.51-3.3-13.92-8.11-17.15-12.86a12.78,12.78,0,0,1-1.81-11.46,28.16,28.16,0,0,1,4.57-7.72,48.19,48.19,0,0,1,6.21-6.16c1.63-1.3,3.82-3.13,6.5-5.44,2-1.71,4-3.54,6.2-5.62l7.61-2L1336,1576.6l31.29-10.21.39.93c-3.72,1.07-3.75,1.09-3.92,1.22s-.35.27-.12,1.48a88.89,88.89,0,0,1,1.2,11.19c.14,2.67.06,10.52-.1,12.72a141.38,141.38,0,0,1-2.87,20.57,148.28,148.28,0,0,1-11.23,29.71c-1.51,3.09-2.58,5.11-2.91,5.63C1347.5,1649.85,1347.13,1649.86,1346.47,1649.86Zm6.07-16.64a7,7,0,0,0-1.67.66,105.57,105.57,0,0,1-14.08,5.43c-3.79,1.16-7.45,2.09-15.1,3.81l-5.81,1.33,2.82.58c2.49.57,12.56,2.34,18.56,3.25,3.27.48,9.09,1.3,9.54,1.33h0c.58,0,.8-.53,1.09-1.25.24-.57,5.47-14.18,5.21-14.83l-.12-.32h-.44Zm-27.48-4.71a143,143,0,0,1-9.72,13.07c-1.39,1.63-1.39,1.77-1.39,1.93,0,.73,1.43.77,1.45.77h.18c.14,0,1.83-.51,3.67-1,10.21-2.93,22.84-6.66,27-8,2-.62,6.12-2,6.39-2.13l.34-.2-.09-.41c-.11-.4-.51-.44-1.17-.5a97.12,97.12,0,0,1-13.4-2.31,76.23,76.23,0,0,1-8.86-2.75,13.29,13.29,0,0,0-2.54-.87h-.22l-.29.3v.06Zm-31.6,5.86,0,.35c0,.17-.09.7,4.4,3.11a59.23,59.23,0,0,0,5.65,2.59c1.65.67,7.72,2.8,8.6,3l.74.19.88-1.56.34-.55c.4-.66.9-1.49,1.26-2.07l.82-1.3c.66-1,1.55-2.45,2.38-3.74,4.91-7.77,4.91-7.77,4.59-8.09l-.15-.15h-.22a6.55,6.55,0,0,0-1.46.38c-3.85,1.21-9.87,2.92-20.15,5.71l-3.85,1c-2.57.7-3.24.88-3.45,1Zm9.68-16.71c-6.33,7.64-9.08,11.12-11.29,14.33l-1,1.41.83.6c.52.36.6.41.78.41s.18,0,7.15-2.46c3.9-1.35,21.46-7.53,21.76-7.75l.21-.14v-.26c0-.27,0-.4-1.56-1.28a44.42,44.42,0,0,1-11.13-9.12l-1.16-1.3Zm1.56-6.47s-.12,0-2.66.61c-1.4.34-5.26,1.25-8.6,2-6,1.4-12.43,2.91-12.79,3-.76.23-.58,1.31-.33,2.39a20,20,0,0,0,4.1,8,40.53,40.53,0,0,0,4.54,4.64l1.51,1.27,1.32-2c.56-.87,1.54-2.31,2.17-3.2l1-1.39,2.88-4.06c7.63-10.66,7.62-10.67,7.22-11.06l-.14-.15Zm54.78-1.87a3.24,3.24,0,0,0-1.15.51c-3.86,2.3-15.08,7.68-26.09,12.5-3.44,1.49-3.45,1.56-3.51,1.87l0,.26.19.19a45.07,45.07,0,0,0,4.39,2,101.11,101.11,0,0,0,19.62,5.52,1.57,1.57,0,0,0,.41.08c.41,0,.41,0,1.58-3.68,1.41-4.44,2.08-6.67,2.88-9.53a88.69,88.69,0,0,0,2.23-9.24l0-.47Zm-23.73-8.29a9.05,9.05,0,0,0-1.91.73,156,156,0,0,1-21,7.26l-2.93.81.92,1.12a49.41,49.41,0,0,0,12.68,10.8c1.7,1,1.7,1,1.87,1,.36,0,.36,0,2.1-3.11a152.71,152.71,0,0,0,8.36-16.84c.48-1.17.57-1.38.3-1.65l-.15-.15Zm3.47-1.1a.83.83,0,0,0-.19.38c-.06.16-.14.41-.25.66a117.79,117.79,0,0,1-7.55,17.18c-1,2-1,2-1,2.14v.5h.51a2.7,2.7,0,0,0,.73-.21l3.37-1.26c10.72-4,21.25-8.39,24.49-10.2l1.92-1.07-1.07-.24.18-.19c.14-.14.14-.14.43-2a133.52,133.52,0,0,0,1.42-18.14v-2l-1.18.89c-.47.41-2.61,2-4.14,3a141.66,141.66,0,0,1-13.09,7.68l-1.07.56a7.36,7.36,0,0,0-1.26.7l-.18.18,0,.26c.09.65,5.64,3.69,5.87,3.81a62.63,62.63,0,0,0,11.14,4.78l1.42.4-.35-.07a72.28,72.28,0,0,1-18.25-7.11c-1.3-.76-1.4-.76-1.54-.76h-.21Zm-37.63-6.65c-1.19.59-5.11,2.8-6.29,3.47a31.6,31.6,0,0,0-8,6.14c-3.83,4-6.56,8.69-7.13,12.3a.92.92,0,0,0,.1.78l.15.18.28,0a.85.85,0,0,0,.23,0l2.87-.79c2.23-.61,20.9-6,21.26-6.27s.31-.32-.72-2.43a17.32,17.32,0,0,1-2.06-9.41c0-.76.16-1.9.26-2.52.16-1,.2-1.2,0-1.44l-.15-.18h-.76Zm18.64-9c-.54,0-11.58,5.29-13.33,6.18-.91.45-1,.67-1.25,2l0,.13a20,20,0,0,0,1.77,13.06c.35.67.51,1,.9,1a.6.6,0,0,0,.51-.29c.08-.12.68-1.05,1.22-1.92,3.31-5.28,5.88-9.75,8.3-14.47,2.6-5.1,2.62-5.32,2.23-5.59l-.11-.11Zm4.81-2a2.2,2.2,0,0,0-.54.11l0,0,0,0a1.34,1.34,0,0,0-.77.93c-.07.21-.49,1.3-.86,2.26a133.53,133.53,0,0,1-9.46,19.08c-.69,1.09-.78,1.23-.6,1.55l.14.26h.32a.75.75,0,0,0,.24,0q2-.68,4-1.32c5.59-1.8,10.56-3.53,15.18-5.3l.35-.13c3.65-1.39,3.65-1.39,3.73-1.76l.06-.27-.24-.26c-.11-.11-.72-.64-1.21-1a40.72,40.72,0,0,1-5.47-5.9,31.49,31.49,0,0,1-3.91-7,4,4,0,0,0-.48-1l-.15-.15Zm18.89-7.45c-.55.19-.55.19-.58,3a70.39,70.39,0,0,1-2.55,16.76c-.38,1.4-.38,1.53-.21,1.75l.15.19h.25a11.46,11.46,0,0,0,2.39-1,105.43,105.43,0,0,0,16.58-8.91l.41-.28c1.22-.83,1.51-1,1.46-1.47s-.38-.54-.72-.68l-.18-.07a150,150,0,0,1-14.49-8.06c-1.62-1-2-1.21-2.35-1.21l.46.38-.24.54Zm-3.19,1.27c-.62,0-13.33,5.11-13.41,5.16-.38.37,0,1.67,1.18,3.91a33.16,33.16,0,0,0,4.49,6.53s4.18,4.53,4.84,4.53h.23l.16-.19c.06-.06.13-.13.65-1.86a61.91,61.91,0,0,0,2.22-10.53c0-.06.49-6.92,0-7.4l-.14-.15Zm19.54-6.6c-.45,0-9.81,3.06-11.69,3.7s-2.13.73-2.19,1.15a.62.62,0,0,0,.31.6c.73.59,5.3,3.61,7.7,5.13.07,0,6.56,4.09,7.09,4.09h.22l.15-.16c.12-.13.24-.26.15-2-.08-2.16-.31-5.14-.59-7.79C1360.94,1569.52,1360.78,1569.52,1360.28,1569.52Z" transform="translate(-1193.64 -1465.94)"/><path class="cls-2" d="M1363.37,1568.18c-.5.41-.41,1.14-.26,1.92a88.14,88.14,0,0,1,1.19,11.14c.14,2.66.06,10.47-.1,12.65a140.41,140.41,0,0,1-2.86,20.5,148.56,148.56,0,0,1-11.18,29.6c-.06.11-.12.23-.17.34.54-1.45,1.09-3,1.55-4.24,2.24-6.21,2.2-6.32,2-6.75l-.1-.21.12-.09-.09-.31c.56-.08.7-.51,1.08-1.66.2-.61.48-1.45.76-2.36,1.26-3.94,2-6.37,2.9-9.54.67-2.4,2.28-8.52,2.24-9.4l-1,0,.54-.54.26-.14,2.29-1.29-1.66-.36c.07-.29.15-.79.3-1.78a131.55,131.55,0,0,0,1.43-18.22v-3l-.35.27a.92.92,0,0,0-.12-.34l0,0c.24-.25.39-.41.29-2.36-.09-2.17-.31-5.17-.59-7.82-.4-3.91-.56-4.92-1.27-5.13l2.71-.88m-17.31,5.65a1.09,1.09,0,0,0-.16.47,1.1,1.1,0,0,0,.49,1.06l.8.58-.49-.31a9.83,9.83,0,0,0-2.33-1.25l1.69-.55m-2,.65v.61l-.22-.54.23-.07m-.95.31c-.26.39-.26,1.15-.28,3a69.43,69.43,0,0,1-2.54,16.64c-.36,1.37-.46,1.74-.12,2.18l.31.4h.49c.2,0,.31,0,2.59-1,2.56-1.13,4.93-2.25,7.13-3.37-2.29,1.35-4.71,2.69-7.19,4l-1,.54c-1.31.69-1.31.69-1.42.81l-.36.36.07.5c0,.28.12.85,5.33,3.74-1.71-.78-3.32-1.6-4.74-2.43s-1.54-.83-1.79-.83h-.43l-.29.29a1.43,1.43,0,0,0-.32.58c0,.15-.13.38-.23.63l0,0v0a117.45,117.45,0,0,1-7.5,17.06c-1.1,2.06-1.1,2.07-1.1,2.37v1h1a2.49,2.49,0,0,0,.92-.25l3.36-1.26c3.85-1.44,7.69-2.93,11.17-4.33-4.3,2-9.22,4.28-14.11,6.42-3.68,1.6-3.69,1.66-3.8,2.23l-.1.52.37.38,0,0,0,0a49,49,0,0,0,4.5,2c2.35.94,4.75,1.79,7.23,2.55-.64-.14-1.26-.29-1.84-.44a73.92,73.92,0,0,1-8.8-2.73c-2.44-.9-2.5-.9-2.72-.9h-.43l-.29.3-.29.29v.12l-.33.49-1,1.46a139.93,139.93,0,0,1-9.68,13c-.25.31-.47.56-.64.78l.14-.25,1.24-2c.18-.27.46-.72.81-1.27.66-1,1.55-2.47,2.39-3.78,1.49-2.35,2.66-4.22,3.46-5.49l.91-1.47c.37-.61.71-1.18.16-1.74l-.31-.3h-.42a6,6,0,0,0-1.61.41c-3.54,1.11-8.71,2.58-17.49,5,5.86-2.06,16.58-5.83,18-6.42v0l.53-.28,0-.6c0-.63-.36-.91-1.8-1.72a44.12,44.12,0,0,1-11-9l-.77-.87-.77-.87-.74.9-4.26,5.11c-2.16,2.61-3.9,4.73-5.35,6.52l.84-1.17c2-2.77,3.85-5.42,5.26-7.44.65-.93,1.17-1.68,1.51-2.19.65-1,1-1.48.4-2.08l-.3-.29h-.41a21.8,21.8,0,0,0-2.78.63c-1.4.34-5.26,1.25-8.59,2l-3.49.81c6.22-1.77,15.15-4.36,15.54-4.69l0,0,0,0c.55-.53.46-.72-.64-3a16.71,16.71,0,0,1-2-9.15c0-.74.16-1.87.25-2.47.17-1,.24-1.43-.12-1.85l-.33-.37h-.46a1.07,1.07,0,0,0-.61.18c-1,.47-4,2.2-5.57,3.06,1.59-1.4,3.22-2.89,5-4.53l7-1.85-1.2.59c-1.07.54-1.19.91-1.5,2.38l0,.13a23.38,23.38,0,0,0-.13,7.54,22.86,22.86,0,0,0,2,5.85c.37.72.64,1.24,1.34,1.24a1.09,1.09,0,0,0,.9-.47c.13-.18.82-1.29,1.25-2,3.33-5.3,5.89-9.78,8.33-14.51,2.79-5.49,2.84-5.7,2.09-6.21l-.14-.14,2.65-1.17a1.84,1.84,0,0,0-.23.53c-.06.2-.53,1.4-.86,2.27a133.82,133.82,0,0,1-9.4,19c-.72,1.14-.94,1.48-.62,2.06l.31.53h.59a1.13,1.13,0,0,0,.39-.07l4.06-1.32c5.6-1.8,10.58-3.54,15.2-5.3l.33-.12c3.92-1.5,3.92-1.5,4.06-2.14a1.08,1.08,0,0,0-.31-1c-.14-.14-.83-.72-1.24-1.06a40.16,40.16,0,0,1-5.4-5.82,32.12,32.12,0,0,1-3.84-6.85c-.32-1-.51-1.17-.61-1.26a1,1,0,0,0-.47-.28l1.37-.6c-.2.39-.14,1.25,1.36,4.18a33.31,33.31,0,0,0,4.55,6.64s4.15,4.7,5.22,4.7h.48l.27-.33c.16-.17.26-.35.76-2.06a62.13,62.13,0,0,0,2.25-10.61c0-.06.67-7-.14-7.82l-.3-.3h-.42c-.45,0-4.49,1.56-8.06,3l3.43-1.51,7-2.29m-17.78,48.49c.65,0,.65,0,2.53-3.36a153.78,153.78,0,0,0,8.39-16.9c.51-1.23.7-1.69.19-2.2l-.29-.29h-.42c-.22,0-.22,0-2.12.78a156.32,156.32,0,0,1-21,7.23l-2.18.6-1.49.41,1,1.19.42.51a50.11,50.11,0,0,0,12.82,10.92c1.82,1.11,1.82,1.11,2.13,1.11m-42.11-16.22a21.18,21.18,0,0,0-3.57,8,1.35,1.35,0,0,0,.2,1.2,1.18,1.18,0,0,0,.27.23c-.83.57-.5,2-.31,2.81a20.56,20.56,0,0,0,4.2,8.16,40.93,40.93,0,0,0,4.61,4.71l1.08.91.47.4h0l.13.09.27.23,0,0,.38.27.44.32c.5.35.71.5,1.06.5a1.25,1.25,0,0,0,.42-.1c0,.47.37,1.15,4.68,3.46a60.27,60.27,0,0,0,5.69,2.62c1.65.66,7.76,2.81,8.67,3.06l.36.1.74.2.38-.68,0,0a1,1,0,0,0,.47.86l-.39.09,4.49.93.56.12c2.5.57,12.59,2.34,18.61,3.26l1.08.15a204.66,204.66,0,0,1-26.84-4.23,108.82,108.82,0,0,1-15.12-5.06c-7.42-3.26-13.76-8-16.94-12.68a12.32,12.32,0,0,1-1.75-11,27.85,27.85,0,0,1,4.49-7.56c.32-.4.71-.85,1.13-1.32m58.16,30.2c-1.58.56-3.16,1.09-4.76,1.57-2.24.69-4.45,1.3-7.47,2,4.51-1.32,8.86-2.61,12.23-3.61m26.13-71.49-31.78,10.37-27.64,12.2-7.73,2.05c-2,1.87-4,3.77-6.27,5.69-2.45,2.11-4.73,4-6.49,5.43a48.83,48.83,0,0,0-6.29,6.24,28.54,28.54,0,0,0-4.66,7.88,13.22,13.22,0,0,0,1.88,11.89c3.26,4.8,9.77,9.7,17.36,13a111,111,0,0,0,15.27,5.11,202.33,202.33,0,0,0,32.57,4.64c.88,0,1.91,0,2.72,0a9.33,9.33,0,0,0,1.48,0,55.26,55.26,0,0,0,3.1-5.88,148.34,148.34,0,0,0,11.27-29.81,141.29,141.29,0,0,0,2.88-20.65c.17-2.33.24-10.14.1-12.78a90.38,90.38,0,0,0-1.21-11.27,2.65,2.65,0,0,1-.07-1,43.21,43.21,0,0,1,4.3-1.3l-.79-1.87Zm-6,17.92c-.19,0-4.06-2.29-6.82-4-2.4-1.51-7-4.53-7.69-5.11-.24-.17-.21-.19,1.76-.87,3.34-1.12,11.26-3.67,11.53-3.67s1,7.37,1.24,12a6.4,6.4,0,0,1,0,1.64ZM1341,1596a6.3,6.3,0,0,1,.29-1.32,71,71,0,0,0,2.57-16.89c0-2.4,0-2.4.24-2.47,0,0,0,0,0,0a8,8,0,0,1,2.09,1.13,147,147,0,0,0,14.55,8.09c.89.39,1,.24-1,1.64a104.88,104.88,0,0,1-16.5,8.86c-1.18.53-2.17.94-2.19.94Zm-3.15-.26a44.08,44.08,0,0,1-4.46-4.36A32.21,32.21,0,0,1,1329,1585a20.9,20.9,0,0,1-1.35-3.27c.38-.26,12.8-5.07,13.13-5.07h0a52.64,52.64,0,0,1-.14,7,62.17,62.17,0,0,1-2.21,10.45,15.91,15.91,0,0,1-.56,1.68ZM1313.17,1606c-.1,0,0-.21.56-1a135.15,135.15,0,0,0,9.49-19.12c.41-1.06.81-2.11.89-2.35a.85.85,0,0,1,.52-.63,2.07,2.07,0,0,1,.41-.09h0a.08.08,0,0,1,.07,0,4.44,4.44,0,0,1,.37.87,32.27,32.27,0,0,0,4,7.13,40.78,40.78,0,0,0,5.55,6c.58.48,1.1.94,1.18,1s.19.12-3.73,1.61c-4.53,1.73-9.48,3.46-15.15,5.28l-4.06,1.32-.08,0Zm-4.87.13c-.08,0-.18-.17-.45-.7a22,22,0,0,1-1.85-5.57,22.41,22.41,0,0,1,.12-7.16c.31-1.49.29-1.47,1-1.83,3-1.54,12.81-6.12,13.1-6.12h0a53.3,53.3,0,0,1-2.35,5c-2.33,4.54-4.88,9-8.29,14.44-.58.93-1.13,1.8-1.2,1.89s-.07.08-.1.08Zm51.66,1.1-1.51-.43a62.49,62.49,0,0,1-11-4.73,51.62,51.62,0,0,1-5.62-3.46s1-.55,2.21-1.18a141.57,141.57,0,0,0,13.14-7.71c1.46-1,3.67-2.57,4.15-3l.39-.29h0v1a130.67,130.67,0,0,1-1.42,18.06c-.14.94-.26,1.71-.29,1.73Zm-79.27,8.4c-.09,0-.09-.09,0-.4.55-3.53,3.24-8.14,7-12a31.27,31.27,0,0,1,7.9-6c2.45-1.39,6.22-3.48,6.51-3.58,0,0,0,0,0,0s.07.19-.08,1.06c-.09.62-.21,1.77-.26,2.57a17.77,17.77,0,0,0,2.11,9.65,18,18,0,0,1,.84,1.83c-.16.14-16.06,4.8-21.06,6.17l-2.88.79-.09,0Zm50,4.62h0s.43-.87,1-1.9a118.91,118.91,0,0,0,7.57-17.22c.19-.46.31-.86.33-.89h0a10.22,10.22,0,0,1,1.29.7,72,72,0,0,0,18.4,7.15l.55.13-.77.43c-3.19,1.77-13.69,6.15-24.42,10.16-1.57.57-3.1,1.15-3.39,1.27a2.77,2.77,0,0,1-.54.17Zm-5.35,2s-.74-.43-1.6-1a49.23,49.23,0,0,1-12.57-10.69l-.43-.53,2.19-.6a156.63,156.63,0,0,0,21.09-7.27c.93-.39,1.7-.7,1.72-.7a5.9,5.9,0,0,1-.4,1.1,151,151,0,0,1-8.34,16.79c-.89,1.59-1.63,2.86-1.66,2.86Zm27.94,9.46a1.41,1.41,0,0,1-.32-.07,100.59,100.59,0,0,1-19.52-5.5c-1.68-.67-4.08-1.75-4.23-1.87a28.92,28.92,0,0,1,3.22-1.52c10.93-4.77,22.26-10.2,26.15-12.53a3.12,3.12,0,0,1,.89-.43h0a92,92,0,0,1-2.21,9.07c-.84,3-1.56,5.36-2.88,9.52-.57,1.82-1.08,3.33-1.1,3.33Zm-62.93.6-1.08-.91a40.88,40.88,0,0,1-4.47-4.56,19.92,19.92,0,0,1-4-7.76c-.26-1.15-.26-1.73,0-1.8s6.77-1.61,12.78-3c3.33-.77,7.2-1.68,8.59-2s2.53-.6,2.55-.6-3,4.44-7.28,10.42c-1.49,2.09-3.22,4.54-3.86,5.45s-1.64,2.36-2.19,3.22l-1,1.56Zm2.12,1.57a4.53,4.53,0,0,1-.49-.32l-.43-.31.7-1c2.26-3.26,5.09-6.84,11.26-14.29l4.25-5.11h0l.77.86a44.81,44.81,0,0,0,11.27,9.22,6.65,6.65,0,0,1,1.29.84c-.16.12-14.84,5.34-21.64,7.69-3.81,1.34-7,2.43-7,2.43Zm22.92,9.87c-.3,0-1-.18-1-.27a18.55,18.55,0,0,1,1.27-1.61,142.67,142.67,0,0,0,9.76-13.11c.79-1.2,1.46-2.19,1.46-2.21h0c.08,0,1.11.37,2.37.84a75.6,75.6,0,0,0,8.91,2.76,97.79,97.79,0,0,0,13.47,2.33c.53,0,.82.1.72.17s-3.7,1.27-6.29,2.09c-4.13,1.3-16.74,5-27,8-1.9.56-3.53,1-3.63,1Zm-2.85-.7-.36-.1c-.86-.24-6.94-2.37-8.55-3a59.88,59.88,0,0,1-5.59-2.57,23.31,23.31,0,0,1-4.13-2.62l7.3-2c10.52-2.86,16.35-4.52,20.17-5.72a12.37,12.37,0,0,1,1.31-.36h0s-1.68,2.76-4.66,7.47c-1.27,2-2.69,4.25-3.19,5s-1.2,2-1.61,2.64l-.7,1.23Zm34.3,6h0c-.41,0-6.06-.82-9.49-1.32-6-.92-16-2.67-18.54-3.25l-.58-.11,3.58-.82c7.69-1.73,11.38-2.67,15.13-3.82a106.78,106.78,0,0,0,14.15-5.45,12.66,12.66,0,0,1,1.53-.63h0c.09.24-3.8,11-5.21,14.46-.3.73-.42.94-.58.94Z" transform="translate(-1193.64 -1465.94)"/><path class="cls-2" d="M1329.28,1517.67l-18.22-3.26-7.49-2.4-3-2.82a1.72,1.72,0,0,1,.1-.42,12.46,12.46,0,0,1,3.06-3,50.59,50.59,0,0,1,5.43-3.23l3,2.66c1.06,1,4.27,4.07,8.8,8.47l2.51,2.46,1.12.17.7.11.51.07c.1,0,.32,0,1.82-.94,2.7-1.68,6.42-3.74,9.71-5.39,1.73-.81,1.74-.89,1.79-1.15l0-.25-.33-.33h-.21l-1.44-.15c-7-.57-19.75-3-24.84-4.73l-3.09-1c3.07-1.61,6.84-3.33,11.16-5.09,5.41-2.2,13-4.91,14.24-5.18,0,.08.06.19.1.32l-.12-.12h-.32c-.8.14-10.15,4.08-13.12,5.44-.08.05-8.47,4.05-8.59,4.71l0,.26.06.06c.07.27.48.33,2.77.63,7.69,1.07,18.85,3,21.31,3.66l.15,0a2.14,2.14,0,0,0,.62.14.65.65,0,0,0,.53-.26c.26-.36.14-.71-.43-2.38l-.12-.37a49.66,49.66,0,0,1-2.31-10c0-.25-.06-.46-.08-.65a79.8,79.8,0,0,0,3.5,9.63c1.88,4.32,5,10.52,7.8,15.42l.67,1.19,2.7.43-.1.79Zm8.2-6.85a46.59,46.59,0,0,1-7.25,5c-.7.38-.81.54-.81.8,0,.48,0,.48,11.18,2.29l.91.15a18.92,18.92,0,0,0,2,.3.57.57,0,0,0,.55-.3.59.59,0,0,0-.09-.63c-.65-1-3.19-5.82-4-7.59-.26-.59-.42-1-.69-1.1l-.06-.06h-.54l-.13.22Zm-27.81-6.59c-3.62,2.57-5.71,5.07-5.73,6.87v.7l1.66.55c1.68.53,2.78.81,5.35,1.4,2.24.51,7,1.46,7.53,1.46h.17l.16-.1c.39-.4.23-.58-.5-1.49l-.45-.56c-.71-.87-2.27-2.78-3.81-4.72l-3.68-4.59Z" transform="translate(-1193.64 -1465.94)"/><path class="cls-2" d="M1317.28,1499.25l-1.45.75c-3.63,1.9-3.63,1.93-3.73,2.5l-.07.39-.48-.16-1-.34c2-1,4.27-2.06,6.76-3.14m19.45,1c.43,1.11.89,2.23,1.35,3.28,1.89,4.33,5,10.55,7.83,15.46l.55,1,.08.15-2.4-.41a1.17,1.17,0,0,0,.4-.43,1.07,1.07,0,0,0-.14-1.15l0-.05c-.59-.89-3.11-5.69-3.91-7.44a2.82,2.82,0,0,0-.86-1.31l-.06-.06a1.05,1.05,0,0,0,.06-.21l.09-.51-.37-.37-.29-.29h-.37l-.19,0-.64-.07a1.08,1.08,0,0,0,.56-.4c.4-.57.24-1.05-.36-2.83l-.13-.37c-.45-1.36-.84-2.67-1.17-4m-27.61,2.87.56.5-.3.21c-2.2,1.56-5.9,4.58-5.94,7.27v.09l-2.3-2.17,0-.06a12.92,12.92,0,0,1,2.89-2.8,47.94,47.94,0,0,1,5.07-3m7.49,1.09c7.58,1.09,17.62,2.83,19.91,3.46l.13,0a159.76,159.76,0,0,1-20-3.5m-2.07,3.94,6.06,5.85,2,2-3.34-.6c.59-.64.13-1.21-.55-2l-.14-.18-.37-.45c-.72-.88-2.19-2.68-3.66-4.54m21.48,3.21a44.83,44.83,0,0,1-6,4c-.63.34-1.08.63-1.08,1.24a1,1,0,0,0,.11.49l-2.42-.43c.28-.15.69-.39,1.27-.75,2.27-1.41,5.28-3.1,8.14-4.58m-1.27-19.66c-.7,0-9.1,3-14.53,5.23-7.43,3-13.19,5.91-16.74,8.41a12.72,12.72,0,0,0-3.25,3.24,2.39,2.39,0,0,0-.14.82l3.22,3,7.66,2.45,18.23,3.27,20.84,3.57.22-1.8-.19,0-2.74-.43-.55-1c-2.84-5-6-11.19-7.78-15.37a79.74,79.74,0,0,1-3.51-9.68c-.41-1.63-.46-1.73-.72-1.75h0Zm2.7,15.18a3.23,3.23,0,0,1-.64-.17c-2.45-.67-13.42-2.57-21.37-3.67-1.28-.17-2.36-.34-2.36-.36s5.74-3.15,8.31-4.35c3.29-1.52,12.32-5.29,13-5.41h0s.12.7.22,1.49a49.21,49.21,0,0,0,2.33,10.11c.63,1.89.81,2.36.49,2.36Zm-11.66,9.08c-.1,0-.6-.1-1.13-.17l-1-.15-2.4-2.35c-4.23-4.11-7.54-7.28-8.82-8.48l-1.25-1.13.94.32c5.09,1.72,17.89,4.17,24.95,4.75.8.07,1.47.15,1.49.15a11.83,11.83,0,0,1-1.51.79c-3.41,1.7-7.16,3.79-9.75,5.4a10.65,10.65,0,0,1-1.56.87Zm-7.31-1.25c-.41,0-5-.89-7.42-1.44s-3.69-.89-5.3-1.4l-1.32-.43v-.34c0-1.6,2.06-4,5.52-6.46l.31-.21,3.39,4.23c1.85,2.32,3.72,4.61,4.13,5.11a7.89,7.89,0,0,1,.72.94Zm25.06,4.16c-.25,0-1-.13-2.86-.44-8.14-1.32-10.76-1.75-10.76-1.8a2.35,2.35,0,0,1,.55-.36,46.77,46.77,0,0,0,7.33-5.07c.55-.46,1-.89,1.15-1s0-.06.07-.06h0c.1,0,.22.22.51.87.82,1.8,3.36,6.65,4,7.59.08.13.19.22,0,.22Z" transform="translate(-1193.64 -1465.94)"/><path class="cls-2" d="M1290.75,1599.44c14.88-12.58,24.47-23.8,29.25-34.23a37.17,37.17,0,0,0,3.84-17.49c-.24-9.34-2.89-16.26-8.84-23.13-1.3-1.49-11.58-11.52-12-11.95a9.62,9.62,0,0,1-2.14-2.49,2.13,2.13,0,0,1-.09-.27,9.15,9.15,0,0,0,3.58,2l.64.24a63.24,63.24,0,0,0,6.44,1.73c2.83.61,7,1.33,9.83,1.8,7.36,1.27,14.59,2.47,25.94,4.23,5.41.83,11.72,1.93,14.46,2.47,15.35,3,27.41,7.08,36.87,12.36a57.13,57.13,0,0,1,16.9,14.08,69.75,69.75,0,0,1,4.72,6.63l-1.42.22c-21.17,3.24-58.07,13.12-80.58,21.59a303.63,303.63,0,0,0-39.72,17.78C1294.24,1597.28,1292.18,1598.47,1290.75,1599.44Zm40.89-33.35c-.12.06-.13.07-.89,1l-.28.33a96.52,96.52,0,0,1-18,16.56c-1.86,1.38-1.86,1.38-1.86,1.66v.5h.5c.11,0,.23,0,2.36-1.09,1.17-.57,3-1.44,4-1.91,3.72-1.71,9.17-4,15-6.21l3.65-1.41-.09-.86a17.81,17.81,0,0,0-2.77-7.22c-.81-1.19-.93-1.37-1.31-1.37h-.14Zm-3.45.86c-.63,0-12,8-12.06,8.07a8.67,8.67,0,0,0-2.51,2.38c-1.44,1.87-2.63,3.28-4.12,4.89-2.83,3.07-2.83,3.07-2.68,3.41l.13.3h.46l.16-.08,1.46-.92a80.54,80.54,0,0,0,15-12.11c5.12-5.18,4.77-5.53,4.51-5.79l-.14-.15Zm26-14.7c-.46,0-7.87,3.91-7.94,4-4.27,2.3-11.43,6.37-12,6.84s-.18.91.41,2.09a19.52,19.52,0,0,1,2,8.42c0,.78,0,1.39.59,1.39h.08l.08,0c.15-.06.27-.13,2.51-2.77,2.79-3.3,7-8.59,9.43-11.79,5.64-7.49,5.46-7.66,5.17-7.95l0,0-.16-.11Zm3.76.28a104.36,104.36,0,0,1-16,18.44l-.46.42c-2.09,1.93-2.09,1.93-1.94,2.29l.12.32h.37a10.09,10.09,0,0,0,2.32-.77c9.82-3.62,18.34-6.34,29.38-9.41l2.73-.77-.84-.91c-.54-.6-3.2-3-4.58-4.13a93.57,93.57,0,0,0-8.33-6.16l-1.6-1Zm-34.11,7.17c-.24,0-.53,0-1,1.59a47.23,47.23,0,0,1-2,4.94,43.82,43.82,0,0,1-3.19,5.49.64.64,0,0,0-.11.68l.14.27h.31c.25,0,.25,0,2.34-1.66s5.53-4.26,7.74-5.84c1.57-1.16,1.58-1.28,1.6-1.52l0-.23-.17-.17a27.69,27.69,0,0,0-4.24-2.87C1324,1559.7,1324,1559.7,1323.82,1559.7Zm71-23.09c-.4,0-4.74,1.33-6.19,1.78-5.55,1.71-13,4.35-18.41,6.57-7.5,3-7.5,3.17-7.5,3.54s.07.36.69.81c.22.16.91.72,1.75,1.42a48.79,48.79,0,0,1,9.63,10.63c.76,1.18.83,1.18,1.09,1.18s.26,0,1.37-1.39l.8-1c.94-1.21,3.77-4.78,6.29-8,4.82-6,6.92-8.78,8.36-10.84,2.94-4.13,2.71-4.37,2.49-4.59l-.15-.15Zm-54.75,6.54c-.55,0-7.34,5.75-7.41,5.81-2.77,2.37-7.43,6.43-7.43,7,0,.32.1.42,1.43,1.11a17.08,17.08,0,0,1,4.35,3.21l1.79,1.72.92-1.48c.19-.34,1.29-2.23,1.29-2.23a60,60,0,0,0,4.29-9.84c1.5-4.77,1.31-5,1.13-5.15l-.15-.14Zm56.3-6-.11.16s-.09.14-1.11,2.32c-3.93,7.9-7.18,12.23-14.47,19.26-2.34,2.24-2.34,2.24-2.19,2.61l.13.31h.34a14.67,14.67,0,0,0,1.74-.37,235.75,235.75,0,0,1,35.42-5.89l2.41-.2.39,0,.06-.38c0-.17.08-.48-4.51-5a82.09,82.09,0,0,0-16.17-12.14c-1.27-.74-1.5-.74-1.61-.74h-.06Zm-53.18,5.41c-.49,0-.63.56-.74,1a50,50,0,0,1-4.83,13.13c-.69,1.24-.8,1.43-.61,1.75l.15.24.32,0c.17,0,.17,0,2.39-1.35,4.11-2.49,7.93-4.59,12.39-6.82,2.76-1.36,2.76-1.38,2.81-1.69l.05-.27-.22-.19c-.27-.23-4-2.19-5.67-3-1.82-.91-5.45-2.66-5.93-2.76h-.11Zm-18.87-5.88c-.19.18-.18.24-.07,1.23l0,.45a53.31,53.31,0,0,1,.34,14.36c-.06.49.09.67.15.73l.14.16h.25c.24,0,.28,0,2.39-2,3.75-3.62,6.76-6.36,9.77-8.86l.65-.57c1-.82,1-.82,1-1.06,0-.44,0-.47-3.59-1.67-1.58-.53-3.81-1.25-5.33-1.67s-4.86-1.25-5.32-1.25h-.21Zm21.39,2.91c.09.12.26.19,1.22.59l.8.34a78,78,0,0,1,9.36,4.58c1.44.84,1.53.84,1.68.84h.13l.11-.06c.11-.05.24-.11,1.21-1.83a60.4,60.4,0,0,0,6.11-14c.24-1,.77-3.27.39-3.64l-.14-.15h-.22c-.56,0-7.34,4-8.87,4.88-.12.07-11.82,7.27-11.89,8.09l0,.25Zm22.49-13c-.6,0-.64.78-.67,1.29a47.93,47.93,0,0,1-4.59,15.81c-.61,1.32-.65,1.44-.48,1.71l.15.23h.28a5.8,5.8,0,0,0,1.56-.57,178.44,178.44,0,0,1,27.61-8.55l2.66-.62-3.09-1.4a140,140,0,0,0-16.42-6C1373.86,1528,1368.6,1526.55,1368.23,1526.55Zm-29-5.57c-.69,0-8.35,6.22-9.55,7.28-.05,0-4.42,4-4.42,4.63s0,.49,4.07,1.59c3.89,1.09,7.94,2.29,10.3,3l1.74.57.22-.74a12.86,12.86,0,0,0,.16-2.18,39.77,39.77,0,0,0-1.17-11.15c-.69-2.6-.8-2.89-1.19-3l-.08,0Zm1.31.39c-.28.27-.16.54.18,1.32a33.08,33.08,0,0,1,2.55,12.86c0,1.77,0,2,.55,2,.19,0,.2,0,2.56-1.57a103.12,103.12,0,0,1,15.66-8.51c2.15-1,2.31-1.1,2.28-1.52v-.34l-.35-.13c-.35-.15-5.81-1.26-8.54-1.79-4.15-.8-14-2.51-14.51-2.51h-.21Zm-22.73-4.12.13.42c.06.18.29.71.5,1.14a77.65,77.65,0,0,1,4.26,11.68c.13.52.28,1,.28,1l.26.73.56-.54s.6-.58,1.3-1.28a47,47,0,0,1,6.72-5.37c1.07-.72,4.25-2.61,5-3s.92-.49.92-.86-.28-.56-1.84-.8c-4.41-.75-11.81-2.14-16.06-3.09a8.47,8.47,0,0,0-1.41-.23h-.11ZM1306.1,1514v.21c0,.21,0,.36,1.38,1.34a49.22,49.22,0,0,1,12.25,13.85c.62,1.09.73,1.19,1,1.19h.21l.15-.15c.22-.28.23-.3-.4-2.58-.32-1.17-3.16-10.74-3.54-11.12l-.14-.15h-.15l-.31-.08c-.47-.13-1.33-.36-2.3-.6s-2.1-.55-3.15-.84c-1.33-.36-2.52-.72-3.46-1l-.38-.14a2.27,2.27,0,0,0-.68-.18h-.21Z" transform="translate(-1193.64 -1465.94)"/><path class="cls-2" d="M1302.82,1511.8c.46.2.92.37,1.34.53l.67.25a65.32,65.32,0,0,0,6.48,1.74c2.83.61,7,1.33,9.84,1.81,7.39,1.27,14.63,2.47,26,4.23,5.39.82,11.69,1.92,14.44,2.46,15.29,3,27.31,7,36.71,12.31a56.58,56.58,0,0,1,16.76,13.95c.79,1,1.49,1.9,2.23,2.93l-2.4-2.4a82.26,82.26,0,0,0-16.27-12.2c-1.38-.82-1.64-.82-1.86-.82h-.13l-.12,0,.23.93v0l-.82-.54a.77.77,0,0,0-.31-.64l-.2-.19.92-.22-2.67-1.21-1.76-.79a141,141,0,0,0-16.48-6c-.07,0-6.61-1.92-7.15-1.92a1,1,0,0,0-.88.49.74.74,0,0,0-.24-.48l-.3-.3h-.42a6.6,6.6,0,0,0-1.67.7,1,1,0,0,0,.08-.49l0-.71-.65-.21h0c-.87-.28-7-1.5-8.61-1.81-3.5-.68-13.94-2.52-14.6-2.52h-.44l-.29.3,0,0a1,1,0,0,0-.61-.51l-.16,0h-.16a2.59,2.59,0,0,0-1,.47c-.12-.78-1-.92-2.24-1.1-4.41-.75-11.79-2.14-16-3.09a9.77,9.77,0,0,0-1.52-.24h-.24l-.21.1.42.87H1318a4.39,4.39,0,0,0-.48-1.06l-.3-.3H1317l-.23-.06c-.47-.13-1.34-.36-2.31-.6l-3.15-.84c-1.31-.36-2.49-.72-3.43-1l-.38-.13a2.56,2.56,0,0,0-.84-.21h-.43l-.29.29-.29.3v.41a1.27,1.27,0,0,0,0,.28l-2.3-2.26c-.13-.11-.3-.28-.5-.47m4.13,4,.21.15a50.36,50.36,0,0,1,11.06,11.94,42.08,42.08,0,0,0-2.85-3.65c-.82-.94-5.18-5.25-8.42-8.44m26.26,8.87c-2,1.65-3.84,3.17-3.88,3.2-.6.53-1.64,1.52-2.65,2.54-1.94,1.94-1.94,2-1.94,2.46,0,.87.17.91,4.43,2.07,3.9,1.1,7.94,2.29,10.28,3l1.25.41,1,.32.29-1,.07-.21a13.35,13.35,0,0,0,.19-2.34,40.82,40.82,0,0,0-.45-7.7,34.39,34.39,0,0,1,1,8.06c0,1.75,0,2.54,1,2.54.35,0,.35,0,2.84-1.66a100.68,100.68,0,0,1,14.27-7.87c-1.92,1.11-3.61,2.13-3.65,2.15-1.87,1.13-4.7,2.92-7.36,4.68-4.71,3.12-4.72,3.22-4.77,3.8l0,.51.28.24c.17.2.45.32,1.41.72l.79.33a78.46,78.46,0,0,1,9.3,4.56c1.49.87,1.64.9,1.93.9h.24l.21-.1c.25-.13.39-.2,1.44-2a64.77,64.77,0,0,0,5.94-13.32,51.53,51.53,0,0,1-4.11,12.45c-.61,1.32-.78,1.67-.45,2.19l.3.46h.55c.19,0,.29,0,1.74-.6a174.45,174.45,0,0,1,24.95-7.92l-1.1.34c-5.55,1.71-13,4.36-18.45,6.59-7.81,3.14-7.81,3.21-7.81,4,0,.53.36.82.9,1.22.21.15.9.71,1.72,1.4a48.4,48.4,0,0,1,9.53,10.5c.66,1,.9,1.43,1.51,1.43s.5,0,1.74-1.56l.32-.4a.8.8,0,0,0,.09.61l.25.62h.68a11.7,11.7,0,0,0,1.86-.38,250.86,250.86,0,0,1,29-5.26c-21.57,4.19-52.19,12.67-71.85,20.06a303.33,303.33,0,0,0-39.78,17.81l-2.82,1.56q6.12-5.44,10.89-10.57a1.17,1.17,0,0,0,.12.36l.27.6h.95l.23-.14h0l0,0,.65-.41.77-.49q2.2-1.39,4.21-2.83c-.43.33-.86.65-1.3,1-2.06,1.52-2.06,1.52-2.06,2.06v1h1c.25,0,.35,0,2.57-1.14,1.23-.6,3-1.46,4-1.91,3.72-1.7,9.16-4,14.93-6.2l3.29-1.27.71-.27-.06-.63a1,1,0,0,0,.69.25h.17l.16,0,.06,0,.07,0c.14-.07.24-.12,1.33-1.38l.23.55h.73c.21,0,.27,0,2.45-.8,9.81-3.61,18.31-6.33,29.35-9.4l2-.55,1.56-.44-1.1-1.2-.29-.31c-.57-.62-3.21-3-4.63-4.17a93.27,93.27,0,0,0-8.38-6.2l-1.18-.77-.84-.54-.54.84-.84,1.28a102.58,102.58,0,0,1-14.57,17c2.4-3,5.07-6.33,6.81-8.64.9-1.19,2.16-2.92,3.38-4.63.54-.75,1-1.42,1.34-1.91.65-.94,1-1.46.4-2.07l-.07-.07-.09-.06-.25-.16h-.3c-.56,0-5.36,2.51-8.18,4-3.58,1.93-11.42,6.34-12.06,6.91l0,0v0c-.66.65-.29,1.4.33,2.63a19.1,19.1,0,0,1,1.92,7.39,19.2,19.2,0,0,0-2.51-5.62c-.84-1.24-1.06-1.58-1.71-1.58h-.31l-.2.1c-.23.12-.26.15-1.06,1.11l-.28.33a80.08,80.08,0,0,1-7.41,7.87c.57-.55,1.14-1.12,1.72-1.71,5.47-5.54,5.13-5.88,4.51-6.5l-.3-.29h-.42c-.37,0-.48,0-5.21,3.21l-.57.39c1.95-1.51,4.33-3.29,6-4.48s1.76-1.4,1.8-1.88l0-.47-.33-.32,0,0,0,0a27.29,27.29,0,0,0-4.29-2.89c-1.28-.69-1.43-.74-1.72-.74-.69,0-1,.47-1.43,1.91a45.16,45.16,0,0,1-2,4.9,43.07,43.07,0,0,1-3.15,5.42,1.13,1.13,0,0,0-.14,1.21l.29.53h.45l-2,1.44a11.36,11.36,0,0,0-1.59,1.26,62.7,62.7,0,0,0,6.2-10.45,38.1,38.1,0,0,0,3.89-17.71,35.19,35.19,0,0,0-4.28-16.87.94.94,0,0,0,.71.29h.41l.3-.3,0,0,0-.06c.34-.44.33-.49-.36-3,0,0-.37-1.31-.87-3,.77,2.08,1.44,4.15,1.87,5.82a10.12,10.12,0,0,0,.29,1l.52,1.47,1.12-1.08s.6-.58,1.31-1.29a45.56,45.56,0,0,1,6.65-5.31c.27-.18.66-.43,1.12-.71m-8.45,29.45h.45c.46,0,.48,0,2.74-2.16,3.73-3.61,6.74-6.34,9.76-8.85l.67-.58c1-.88,1.09-1,1.09-1.42,0-.83-.22-.91-3.93-2.15-1.59-.53-3.82-1.25-5.35-1.67a55.25,55.25,0,0,0-5.46-1.27h-.44l-.29.29c-.36.36-.33.61-.22,1.65l.06.48a53,53,0,0,1,.33,14.22,1.34,1.34,0,0,0,.27,1.11l.32.35m12.18,5h.57c.31,0,.31,0,2.65-1.42,4.09-2.48,7.9-4.58,12.34-6.8,3-1.47,3-1.47,3.1-2.06l.08-.5-.36-.37,0,0,0,0c-.36-.31-4.52-2.46-5.78-3.09-.86-.43-5.39-2.66-6-2.8l-.1,0h-.11c-.87,0-1.11.91-1.24,1.39a49,49,0,0,1-4.77,13c-.73,1.33-.93,1.69-.6,2.25l.33.51m-4,3.6.66-1,.62-1c.17-.31.43-.76.69-1.21s.41-.71.58-1a60.09,60.09,0,0,0,4.34-9.94c1.58-5.06,1.41-5.23,1-5.64l-.3-.29h-.41c-.42,0-.47,0-3.39,2.34-1.29,1-3.11,2.52-4.34,3.59-7.61,6.5-7.61,7-7.61,7.37,0,.68.46.92,1.7,1.56a16.55,16.55,0,0,1,4.23,3.12l1.34,1.29.89.86m61.95-23.65-.14.28c-3.9,7.85-7.12,12.14-14.37,19.13-.72.69-1.24,1.19-1.61,1.56,1.08-1.38,3.55-4.49,6-7.59,4.82-6.06,6.94-8.8,8.37-10.85.76-1.07,1.32-1.89,1.74-2.53m-94.47-30.88a2.38,2.38,0,0,0,0,2.09,9.53,9.53,0,0,0,2.25,2.66s10.69,10.43,12,11.92c5.91,6.82,8.48,13.54,8.72,22.81a37,37,0,0,1-3.8,17.27c-5,10.9-15.54,22.94-31.8,36.29l2.38-.79a75.54,75.54,0,0,1,8.53-5.07,303.39,303.39,0,0,1,39.65-17.75c22.48-8.45,59.44-18.35,80.48-21.57l2.19-.33-.34-.53a72.87,72.87,0,0,0-4.83-6.8,57.67,57.67,0,0,0-17-14.19c-9.41-5.26-21.59-9.37-37-12.42-2.91-.58-9.29-1.68-14.48-2.47-11-1.71-18.11-2.88-25.94-4.23-2.81-.48-7-1.2-9.8-1.8a60.29,60.29,0,0,1-6.36-1.71c-1.73-.67-4.23-1.34-4.76-3.38Zm20.37,21.88a4.9,4.9,0,0,1-.6-.94,49.91,49.91,0,0,0-12.4-14,9.17,9.17,0,0,1-1.17-.94h0a8.9,8.9,0,0,1,.9.29c.91.31,2.09.67,3.48,1.06,1.06.29,2.11.57,3.17.84,1.44.36,2.64.69,2.67.69.17.17,2.59,7.93,3.41,10.91.31,1.13.55,2.09.53,2.09Zm-2.38-12.61v0a0,0,0,0,0,0,0h0a9.74,9.74,0,0,1,1.3.21c4.08.92,11.41,2.31,16.09,3.1a6.35,6.35,0,0,1,1.42.31,2.33,2.33,0,0,1-.65.41c-.79.41-4,2.31-5,3a46,46,0,0,0-6.8,5.43l-1.3,1.27s-.14-.41-.26-.91a77.6,77.6,0,0,0-4.3-11.77,9.56,9.56,0,0,1-.47-1.08Zm22.62,19.93-1.24-.41c-2.57-.81-6.75-2-10.33-3-2-.55-3.7-1-3.7-1.1a56.45,56.45,0,0,1,4.25-4.25,111.11,111.11,0,0,1,9.22-7.16h0c.15,0,.39.86.87,2.67a39.4,39.4,0,0,1,1.15,11c0,1-.1,1.94-.14,2.06l-.08.24Zm2.79-.36a13.81,13.81,0,0,1,0-1.54,33.55,33.55,0,0,0-2.59-13.06,4.1,4.1,0,0,1-.29-.77h0c.45,0,10,1.65,14.41,2.5,3.34.65,8.19,1.66,8.48,1.78s-.36.33-2,1a105,105,0,0,0-15.73,8.55c-1.22.82-2.26,1.49-2.28,1.49Zm15,8.36a11.62,11.62,0,0,1-1.43-.77,79.38,79.38,0,0,0-9.41-4.61c-1-.41-1.81-.75-1.83-.79-.17-.15,7.57-5.26,11.65-7.71,3.19-1.94,8.35-4.81,8.61-4.81h0a18,18,0,0,1-.53,3.17,60,60,0,0,1-6,13.89,13.84,13.84,0,0,1-1,1.63Zm4.12-.36a6.19,6.19,0,0,1,.5-1.23,48.67,48.67,0,0,0,4.64-16c0-.46.09-.82.17-.82s4.58,1.2,6.86,1.88a139.75,139.75,0,0,1,16.36,6l1.75.79-1.22.29a177.72,177.72,0,0,0-27.69,8.57c-.7.29-1.32.53-1.37.53Zm-37.71,8.05s-.07-.15,0-.34a53.73,53.73,0,0,0-.33-14.48,9.63,9.63,0,0,1-.12-1.28h0c.33,0,3.46.75,5.19,1.23,2.74.77,8.55,2.71,8.55,2.86s-.65.57-1.42,1.25c-3.14,2.61-6.17,5.37-9.8,8.88-1.08,1-2,1.88-2,1.88Zm50.7,8.91a10.34,10.34,0,0,1-.67-1,49.7,49.7,0,0,0-9.73-10.73c-.72-.6-1.51-1.25-1.78-1.44a2.91,2.91,0,0,1-.48-.41c0-.07,4.09-1.83,7.19-3.07,5.42-2.21,12.82-4.86,18.37-6.56,2.83-.89,5.84-1.76,6-1.76h0c.05,0-1.54,2.54-2.54,4-1.45,2.06-3.56,4.8-8.34,10.81-2.52,3.17-5.35,6.75-6.29,7.95s-1.75,2.21-1.78,2.21Zm20.8-24.45h0a6.45,6.45,0,0,1,1.36.68,81.54,81.54,0,0,1,16.07,12.06c1.27,1.24,4.42,4.51,4.37,4.53l-2.4.2a237.09,237.09,0,0,0-35.5,5.9c-.84.2-1.59.36-1.63.36s.88-.93,2.06-2.06c7.3-7,10.64-11.48,14.58-19.41.55-1.17,1-2.18,1.08-2.25h0Zm-59.2,20.58c-.1,0-.07-.1.57-1.27a50.07,50.07,0,0,0,4.88-13.24c.1-.36.19-.6.26-.6.34.07,3.46,1.54,5.82,2.72,2.16,1.08,5.4,2.81,5.57,3s-1.13.62-2.55,1.32c-4.51,2.26-8.38,4.4-12.41,6.85-1.16.69-2.12,1.27-2.14,1.27Zm-4.78,3-1.35-1.29a17.46,17.46,0,0,0-4.46-3.29,7.72,7.72,0,0,1-1.16-.67c0-.2,4.11-3.92,7.26-6.61,2.23-1.93,6.92-5.69,7.08-5.69h0a45.21,45.21,0,0,1-1.25,4.63,58.54,58.54,0,0,1-4.25,9.75c-.38.68-1,1.66-1.27,2.21l-.6,1Zm7.24,12.3c-.11,0,0-.1,2.25-2.16a105.12,105.12,0,0,0,16.13-18.54l.85-1.3,1.17.77a91.35,91.35,0,0,1,8.29,6.12c1.37,1.13,4,3.51,4.54,4.09l.29.31-2,.55c-11,3.05-19.5,5.77-29.42,9.42-1.11.41-2,.74-2.11.74Zm-2.71.94c-.07,0-.09-.36-.09-.89a20.12,20.12,0,0,0-2-8.65c-.55-1.1-.65-1.37-.53-1.49.46-.4,7.45-4.39,11.87-6.77,2.94-1.57,7.54-3.89,7.7-3.89h0s-3.25,4.68-5.22,7.3c-2.35,3.12-6.53,8.36-9.41,11.77-1.2,1.42-2.23,2.59-2.28,2.62Zm-19.24-2.27s0-.07.08-.18a44.13,44.13,0,0,0,3.22-5.55,45.76,45.76,0,0,0,2-5,3.84,3.84,0,0,1,.48-1.22,10.22,10.22,0,0,1,1.25.62,26.86,26.86,0,0,1,4.13,2.79,7.53,7.53,0,0,1-1.4,1.15c-2.28,1.63-5.74,4.25-7.75,5.86a20.85,20.85,0,0,1-2,1.55Zm-6.88,13.44h0s.74-.58,1.65-1.25a96.12,96.12,0,0,0,18.06-16.65c.51-.6,1-1.15,1-1.17h.07c.12,0,.28.24.89,1.16a17.24,17.24,0,0,1,2.69,7l0,.48-3.29,1.27c-5.88,2.28-11.31,4.54-15,6.22-1,.48-2.84,1.35-4,1.92s-2.08,1-2.13,1Zm-3.86-.11a33.9,33.9,0,0,1,2.58-2.87c1.59-1.71,2.79-3.15,4.16-4.92a8.11,8.11,0,0,1,2.4-2.29c3.5-2.52,11.53-8,11.76-8h0a49.55,49.55,0,0,1-4.52,5.09,79.47,79.47,0,0,1-14.91,12l-1.44.92Z" transform="translate(-1193.64 -1465.94)"/></svg>