<svg id="Camada_10" data-name="Camada 10" xmlns="http://www.w3.org/2000/svg" viewBox="0 0 290.85 241.76"><defs><style>.cls-1{fill:#131b2e;}.cls-1,.cls-3,.cls-4{stroke:#2feabb;stroke-miterlimit:10;}.cls-2,.cls-3{opacity:0.8;}.cls-3,.cls-4{fill:#2feabb;}</style></defs><title>SQL</title><polygon class="cls-1" points="217.11 240.45 72.27 241.26 0.58 121.68 73.74 1.3 218.58 0.5 290.27 120.08 217.11 240.45"/><polygon class="cls-1" points="210.76 226.64 81.87 225.75 16.75 120.07 80.53 15.27 209.42 16.16 274.54 121.85 210.76 226.64"/><g class="cls-2"><path class="cls-3" d="M854.37,1124.26c0-6.22-15.12-11.25-33.75-11.25s-33.75,5-33.75,11.25,15.11,11.25,33.75,11.25S854.37,1130.47,854.37,1124.26Z" transform="translate(-697.87 -1057.47)"/><path class="cls-3" d="M903.87,1215.45H896l.82-.82a13.48,13.48,0,0,0-14.25-22.17,22.37,22.37,0,0,0-28.16-8.85,22.66,22.66,0,0,0-10.17,8.85A13.48,13.48,0,0,0,830,1214.63l.82.82h-7.9a13.5,13.5,0,0,0,0,27h81a13.5,13.5,0,1,0,0-27Zm-51.75-4.5v-2.25H836.37V1220h15.75v11.25h0V1220H836.37V1208.7h15.75Zm20.25,20.25h-13.5v-22.5h15.75v22.5h-2.25l4.5,4.5Zm24.75,0H881.37v0Z" transform="translate(-697.87 -1057.47)"/><path class="cls-3" d="M874.62,1209.76H858.87v22.5h13.5l-4.5-4.5,4.5,4.5h2.25Z" transform="translate(-697.87 -1057.47)"/><path class="cls-1" d="M883.62,1207.51h-2.25a2.24,2.24,0,0,0-2.25,2.25v22.5a2.25,2.25,0,0,0,2.25,2.25h15.75a2.25,2.25,0,0,0,2.25-2.25V1230H883.62Z" transform="translate(-697.87 -1057.47)"/><path class="cls-1" d="M876.87,1232.26v-22.5a2.25,2.25,0,0,0-2.25-2.25H858.87a2.24,2.24,0,0,0-2.25,2.25v22.5a2.25,2.25,0,0,0,2.25,2.25h12.56l3.84,3.84,3.19-3.18-1.88-1.88A2.22,2.22,0,0,0,876.87,1232.26ZM861.12,1230v-18h11.25v17.06l-2.91-2.9-3.19,3.18.66.66Z" transform="translate(-697.87 -1057.47)"/><path class="cls-1" d="M852.12,1207.51H836.37a2.24,2.24,0,0,0-2.25,2.25v13.5h15.75V1230H834.12v2.25a2.25,2.25,0,0,0,2.25,2.25h15.75a2.25,2.25,0,0,0,2.25-2.25v-13.5H838.62V1212h15.75v-2.25A2.25,2.25,0,0,0,852.12,1207.51Z" transform="translate(-697.87 -1057.47)"/><path class="cls-4" d="M903.87,1214.26h-3.13a15.72,15.72,0,0,0-17.26-23.38,24.52,24.52,0,0,0-20.11-10.37,24.79,24.79,0,0,0-6.75,1v-57.21c0-8.87-18.12-13.5-36-13.5s-36,4.63-36,13.5v67.5c0,8.86,18.11,13.5,36,13.5,1,0,2.11,0,3.21-.07a15.85,15.85,0,0,0,2.16,9.07h-3.12a15.75,15.75,0,0,0,0,31.5h81a15.75,15.75,0,1,0,0-31.5Zm-83.25-99c19.23,0,31.5,5.33,31.5,9s-12.27,9-31.5,9-31.5-5.34-31.5-9S801.38,1115.26,820.62,1115.26Zm-31.5,15.88c6.48,4.37,19,6.62,31.5,6.62s25-2.25,31.5-6.62v15.62c0,3.66-12.27,9-31.5,9s-31.5-5.34-31.5-9Zm0,22.5c6.48,4.37,19,6.62,31.5,6.62s25-2.25,31.5-6.62v15.62c0,3.66-12.27,9-31.5,9s-31.5-5.34-31.5-9Zm35.68,47c-1.44.07-2.83.12-4.18.12-19.24,0-31.5-5.34-31.5-9v-15.62c6.48,4.37,19,6.62,31.5,6.62s25-2.25,31.5-6.62v7.07a24.75,24.75,0,0,0-8.87,7.67A15.49,15.49,0,0,0,824.8,1200.64Zm79.07,40.62h-81a11.25,11.25,0,0,1,0-22.5h7.89a2.25,2.25,0,0,0,1.6-3.85l-.81-.81a11.23,11.23,0,0,1,11.86-18.47,2.25,2.25,0,0,0,2.7-.93,20.21,20.21,0,0,1,34.51,0,2.25,2.25,0,0,0,2.7.93,11.23,11.23,0,0,1,11.86,18.47l-.81.81a2.25,2.25,0,0,0,1.6,3.85h7.9a11.25,11.25,0,1,1,0,22.5Z" transform="translate(-697.87 -1057.47)"/></g></svg>