<svg id="Camada_10" data-name="Camada 10" xmlns="http://www.w3.org/2000/svg" viewBox="0 0 290.85 241.76"><defs><style>.cls-1{fill:#131b2e;}.cls-1,.cls-3{stroke:#2feabb;stroke-miterlimit:10;}.cls-2,.cls-4{opacity:0.8;}.cls-3{fill:#2feabb;}.cls-4{fill:aqua;}.cls-5{opacity:0.1;}</style></defs><title>sqllite</title><polygon class="cls-1" points="217.11 240.45 72.27 241.26 0.58 121.68 73.74 1.3 218.58 0.5 290.27 120.08 217.11 240.45"/><polygon class="cls-1" points="210.76 226.64 81.87 225.75 16.75 120.07 80.53 15.27 209.42 16.16 274.54 121.85 210.76 226.64"/><g class="cls-2"><path id="SQLite" class="cls-3" d="M542.31,469.26a7.33,7.33,0,0,0-5.23,1.9,6.58,6.58,0,0,0-2,5,8,8,0,0,0,.5,2.91,7.23,7.23,0,0,0,1.54,2.44,21.73,21.73,0,0,0,4.16,3,21.41,21.41,0,0,1,5,3.8,4.82,4.82,0,0,1,1.2,3.09,4.37,4.37,0,0,1-1.45,3.44,5.63,5.63,0,0,1-3.89,1.3,6.37,6.37,0,0,1-6.4-6.55h-.79v7.19h.79c.24-.68.58-1,1-1a6.47,6.47,0,0,1,1.47.41,14.27,14.27,0,0,0,4.62,1,7.58,7.58,0,0,0,7.56-7.56,6.85,6.85,0,0,0-1.46-4.31,20.76,20.76,0,0,0-5.66-4.39,18.78,18.78,0,0,1-4.71-3.56,4.81,4.81,0,0,1-1.1-3.06,3.59,3.59,0,0,1,1.32-2.91,5.28,5.28,0,0,1,3.46-1.08,5.79,5.79,0,0,1,4,1.44,6.06,6.06,0,0,1,1.87,4h.79v-6.23h-.74a1.76,1.76,0,0,1-.25.61.54.54,0,0,1-.43.14,5.47,5.47,0,0,1-1.36-.32A12.09,12.09,0,0,0,542.31,469.26Zm25.9,0a14,14,0,0,0-7.13,1.85,14,14,0,0,0-7,12.07,13.33,13.33,0,0,0,3.26,8.84,13.75,13.75,0,0,0,7.84,4.81,12.35,12.35,0,0,1,3,2.81,24.32,24.32,0,0,0,3.73,3.67,11.15,11.15,0,0,0,3.28,1.62,12.7,12.7,0,0,0,3.78.53,10.73,10.73,0,0,0,4.42-.87l-.29-.73a7.08,7.08,0,0,1-2.4.41,6.34,6.34,0,0,1-3.48-1.14,21.74,21.74,0,0,1-4.35-4.37,14.62,14.62,0,0,0-1.7-1.93,13.7,13.7,0,0,0,8.19-4.84,13.47,13.47,0,0,0,3.2-8.81,13.22,13.22,0,0,0-4.16-9.89A14.1,14.1,0,0,0,568.21,469.26Zm16.17,0,0,.85c1.74,0,2.71.51,2.93,1.54a12.07,12.07,0,0,1,.13,2l0,18.75a4.13,4.13,0,0,1-.6,2.69,3.23,3.23,0,0,1-2,.72l0,.85H602.2l.44-4.26h-.79a3.43,3.43,0,0,1-1.57,2.47,9.7,9.7,0,0,1-4.41.7h-1.64c-1.9,0-3-.68-3.29-2.07a4.78,4.78,0,0,1-.09-.89l.07-19a4.81,4.81,0,0,1,.55-2.79,2.66,2.66,0,0,1,2-.78l0-.85Zm-15.89,1a8.79,8.79,0,0,1,7.21,3.5c1.86,2.34,2.78,5.56,2.78,9.62q0,5.79-2.81,9.26a9.1,9.1,0,0,1-7.46,3.48,8.76,8.76,0,0,1-7.25-3.59,14.83,14.83,0,0,1-2.76-9.33q0-5.89,2.79-9.42A9.09,9.09,0,0,1,568.49,470.29Zm39.89,4a1.19,1.19,0,0,0-1,.43,1.16,1.16,0,0,0-.24,1.06,2,2,0,0,0,1.86,1.53,1.12,1.12,0,0,0,1-.46,1.31,1.31,0,0,0,.21-1.07,1.85,1.85,0,0,0-.66-1.06A1.73,1.73,0,0,0,608.38,474.32Zm11.45,2.88q-1.08,4.14-4.68,4.5l0,.79H618l-.06,9.37a19.69,19.69,0,0,0,.17,3.22,2.3,2.3,0,0,0,2.54,2c2.06,0,4.21-1.26,6.47-3.76l-.68-.58q-2.45,2.48-4.33,2.47c-.77,0-1.25-.44-1.43-1.32a3.3,3.3,0,0,1-.07-.75l0-10.61h4.27l0-1.26h-4.21v-4Zm16.5,3.53a6.77,6.77,0,0,0-5.84,3.46,9.84,9.84,0,0,0-1.38,7.67,6.64,6.64,0,0,0,2.1,3.83,6,6,0,0,0,4,1.35c1.49,0,3.57-.38,4.44-1.14a10.56,10.56,0,0,0,2.44-3.69l-.6-.62a6.48,6.48,0,0,1-5.41,3.29c-2.49,0-4-1.37-4.59-4.09a9,9,0,0,1-.16-1.11,14.53,14.53,0,0,0,6.73-2.5c1.51-1.2,3-2.48,2.75-3.82a3.13,3.13,0,0,0-1.23-1.91A7.18,7.18,0,0,0,636.33,480.73Zm-26.1.1L605.09,482v.92l1.78-.23a1.38,1.38,0,0,1,1.53,1.17,6.76,6.76,0,0,1,.1,1.09l-.06,8.41c0,1.16-.14,1.84-.4,2a4.2,4.2,0,0,1-2.07.31l0,.79h8.16l0-.79a5.52,5.52,0,0,1-2.19-.27,1.3,1.3,0,0,1-.64-1,9.32,9.32,0,0,1-.11-1.78l0-11.87ZM635,482.38a2.39,2.39,0,0,1,1.46.57,2.18,2.18,0,0,1,.86,1.25c.47,2.24-1.51,3.79-6,4.65a8,8,0,0,1,.88-4.45A3.19,3.19,0,0,1,635,482.38Z" transform="translate(-416.14 -356.55)"/><path id="solid-background" class="cls-4" d="M530.78,437.13H486.49a5.41,5.41,0,0,0-5.39,5.4v48.84a5.41,5.41,0,0,0,5.39,5.4h29.17C515.33,482.26,520.29,454.09,530.78,437.13Z" transform="translate(-416.14 -356.55)"/><path id="gradient-background" class="cls-4" d="M529.18,438.71H486.49a3.83,3.83,0,0,0-3.82,3.82v45.28c9.67-3.71,24.18-6.91,34.21-6.77A310.28,310.28,0,0,1,529.18,438.71Z" transform="translate(-416.14 -356.55)"/><path id="feather" class="cls-3" d="M541.11,435.53c-3-2.7-6.7-1.62-10.33,1.6-.53.48-1.07,1-1.6,1.58-6.21,6.57-12,18.76-13.75,28.06a25.72,25.72,0,0,1,1.6,4.6c.09.35.17.68.24,1,.16.67.24,1.1.24,1.1s0-.21-.28-.87l-.15-.43a2,2,0,0,0-.1-.23c-.4-.94-1.52-2.93-2-3.79-.42,1.24-.8,2.4-1.11,3.45a30.85,30.85,0,0,1,2.29,7.06s-.07-.29-.43-1.29-1.9-3.66-2.27-4.31c-.64,2.36-.9,4-.67,4.35a14.81,14.81,0,0,1,1.24,3.48c.85,3.24,1.43,7.18,1.43,7.18l0,.66a65.37,65.37,0,0,0,.16,8.08,28.47,28.47,0,0,0,1.48,7.81l.45-.24a35.15,35.15,0,0,1-1.21-11.67,89.07,89.07,0,0,1,4.89-24.42c5.07-13.39,12.1-24.12,18.53-29.25-5.86,5.3-13.8,22.44-16.18,28.79A115.16,115.16,0,0,0,517.94,488c2-6,8.3-8.56,8.3-8.56s3.11-3.84,6.74-9.31a62.72,62.72,0,0,0-6.94,1.85c-1.77.74-2.25,1-2.25,1a60.56,60.56,0,0,1,10.63-5.06c6.75-10.63,14.1-25.72,6.69-32.33" transform="translate(-416.14 -356.55)"/><g class="cls-5"><path id="SQLite-2" data-name="SQLite" class="cls-3" d="M549.68,469.16a7.28,7.28,0,0,0-5.23,1.9,6.6,6.6,0,0,0-2,5,8.27,8.27,0,0,0,.5,2.91,7.39,7.39,0,0,0,1.54,2.44,22.07,22.07,0,0,0,4.16,3,21.41,21.41,0,0,1,5,3.8,4.82,4.82,0,0,1,1.2,3.09,4.37,4.37,0,0,1-1.45,3.44,5.63,5.63,0,0,1-3.89,1.3,6.39,6.39,0,0,1-6.4-6.55h-.79v7.19h.79c.25-.68.58-1,1-1a6.47,6.47,0,0,1,1.47.41,14.27,14.27,0,0,0,4.62,1,7.56,7.56,0,0,0,7.56-7.56,6.85,6.85,0,0,0-1.46-4.31,20.76,20.76,0,0,0-5.66-4.39,18.78,18.78,0,0,1-4.71-3.56,4.81,4.81,0,0,1-1.1-3.06,3.62,3.62,0,0,1,1.32-2.91,5.28,5.28,0,0,1,3.46-1.08,5.83,5.83,0,0,1,4,1.44,6.1,6.1,0,0,1,1.86,4h.79v-6.23h-.74a1.76,1.76,0,0,1-.25.61.52.52,0,0,1-.43.14,5.47,5.47,0,0,1-1.36-.32A12.09,12.09,0,0,0,549.68,469.16Zm25.9,0a14.06,14.06,0,0,0-7.13,1.85,14,14,0,0,0-7,12.07,13.3,13.3,0,0,0,3.27,8.84,13.69,13.69,0,0,0,7.84,4.81,12.74,12.74,0,0,1,3,2.81,23.9,23.9,0,0,0,3.72,3.67,11.15,11.15,0,0,0,3.28,1.62,12.75,12.75,0,0,0,3.78.53,10.54,10.54,0,0,0,4.42-.88l-.29-.72a7.07,7.07,0,0,1-2.4.4A6.34,6.34,0,0,1,584.6,503a21.74,21.74,0,0,1-4.35-4.37,13.9,13.9,0,0,0-1.7-1.93,13.7,13.7,0,0,0,8.19-4.84,13.47,13.47,0,0,0,3.2-8.81,13.22,13.22,0,0,0-4.16-9.89A14.1,14.1,0,0,0,575.58,469.16Zm16.17,0,0,.85c1.74,0,2.71.51,2.93,1.54a12.07,12.07,0,0,1,.13,2l0,18.75a4.21,4.21,0,0,1-.59,2.69,3.29,3.29,0,0,1-2,.72l0,.85h17.35l.44-4.26h-.79a3.4,3.4,0,0,1-1.57,2.47,9.7,9.7,0,0,1-4.41.7H601.6c-1.9,0-3-.68-3.29-2.07a4.09,4.09,0,0,1-.08-.89l.07-19a4.75,4.75,0,0,1,.54-2.79,2.66,2.66,0,0,1,2-.78l0-.85Zm-15.89,1a8.78,8.78,0,0,1,7.21,3.5c1.86,2.34,2.78,5.56,2.78,9.62q0,5.78-2.81,9.26a9.1,9.1,0,0,1-7.46,3.48,8.73,8.73,0,0,1-7.24-3.59,14.85,14.85,0,0,1-2.77-9.33q0-5.89,2.79-9.42A9.09,9.09,0,0,1,575.86,470.19Zm39.9,4a1.2,1.2,0,0,0-1.23,1.49,1.92,1.92,0,0,0,.68,1.07,1.85,1.85,0,0,0,1.19.46,1.11,1.11,0,0,0,.94-.46,1.31,1.31,0,0,0,.21-1.07,1.89,1.89,0,0,0-.65-1.06A1.75,1.75,0,0,0,615.76,474.22Zm11.44,2.88q-1.08,4.14-4.67,4.5l0,.79h2.8l-.06,9.37a21,21,0,0,0,.17,3.22,2.3,2.3,0,0,0,2.54,2c2.06,0,4.21-1.26,6.47-3.76l-.68-.58q-2.44,2.47-4.33,2.47c-.77,0-1.25-.44-1.43-1.32A3.3,3.3,0,0,1,628,493l0-10.61h4.27l0-1.26H628v-4Zm16.5,3.53a6.77,6.77,0,0,0-5.84,3.46,9.84,9.84,0,0,0-1.38,7.67,6.64,6.64,0,0,0,2.1,3.83,6,6,0,0,0,4,1.35c1.49,0,3.57-.38,4.45-1.14a10.7,10.7,0,0,0,2.43-3.69l-.6-.62a6.46,6.46,0,0,1-5.41,3.29c-2.49,0-4-1.37-4.58-4.09a8.92,8.92,0,0,1-.17-1.11,14.53,14.53,0,0,0,6.73-2.5c1.51-1.2,3-2.48,2.75-3.82a3.12,3.12,0,0,0-1.22-1.91A7.25,7.25,0,0,0,643.7,480.63Zm-26.09.1-5.15,1.18v.92l1.78-.23a1.38,1.38,0,0,1,1.53,1.17,6.76,6.76,0,0,1,.1,1.09l-.06,8.41c0,1.16-.14,1.84-.4,2a4.17,4.17,0,0,1-2.07.31l0,.79h8.16v-.79a5.55,5.55,0,0,1-2.2-.27,1.33,1.33,0,0,1-.64-1,10.25,10.25,0,0,1-.11-1.78l0-11.87Zm24.78,1.55a2.39,2.39,0,0,1,1.46.57,2.18,2.18,0,0,1,.86,1.25c.47,2.24-1.51,3.79-6,4.65a7.87,7.87,0,0,1,.87-4.45A3.19,3.19,0,0,1,642.39,482.28Z" transform="translate(-416.14 -356.55)"/><path id="solid-background-2" data-name="solid-background" class="cls-4" d="M538.16,437H493.87a5.42,5.42,0,0,0-5.4,5.4v48.84a5.42,5.42,0,0,0,5.4,5.4H523C522.71,482.15,527.66,454,538.16,437Z" transform="translate(-416.14 -356.55)"/><path id="gradient-background-2" data-name="gradient-background" class="cls-4" d="M536.55,438.61H493.87a3.83,3.83,0,0,0-3.83,3.82v45.28c9.67-3.71,24.18-6.91,34.21-6.77A310.28,310.28,0,0,1,536.55,438.61Z" transform="translate(-416.14 -356.55)"/><path id="feather-2" data-name="feather" class="cls-3" d="M548.49,435.43c-3-2.7-6.71-1.62-10.33,1.6-.54.48-1.08,1-1.61,1.58-6.2,6.57-12,18.76-13.75,28.06a25.72,25.72,0,0,1,1.6,4.6c.09.35.18.68.24,1,.16.67.24,1.1.24,1.1s0-.21-.28-.87c0-.13-.09-.26-.15-.43l-.09-.23c-.41-.94-1.53-2.93-2-3.79-.42,1.24-.79,2.4-1.11,3.45a30.32,30.32,0,0,1,2.29,7.06s-.07-.29-.43-1.29-1.9-3.66-2.27-4.31c-.64,2.36-.9,4-.67,4.35a15.23,15.23,0,0,1,1.25,3.48c.84,3.24,1.42,7.18,1.42,7.18l0,.66a67.34,67.34,0,0,0,.17,8.08,28.24,28.24,0,0,0,1.47,7.81l.45-.24a34.92,34.92,0,0,1-1.2-11.67,88.65,88.65,0,0,1,4.88-24.42c5.07-13.39,12.1-24.12,18.53-29.25-5.86,5.3-13.8,22.44-16.17,28.78a115.57,115.57,0,0,0-5.69,20.17c2-6,8.3-8.56,8.3-8.56s3.11-3.84,6.74-9.31a62.72,62.72,0,0,0-6.94,1.85c-1.77.74-2.24,1-2.24,1a60.3,60.3,0,0,1,10.62-5.06c6.75-10.63,14.1-25.72,6.7-32.33" transform="translate(-416.14 -356.55)"/></g></g></svg>