<svg id="Camada_10" data-name="Camada 10" xmlns="http://www.w3.org/2000/svg" viewBox="0 0 246.02 204.5"><defs><style>.cls-1{fill:#131b2e;}.cls-1,.cls-2{stroke:#2feabb;stroke-miterlimit:10;}.cls-2{fill:#2feabb;}</style></defs><title>unity</title><polygon class="cls-1" points="183.6 203.32 61.18 204 0.58 102.93 62.42 1.18 184.84 0.5 245.44 101.57 183.6 203.32"/><polygon class="cls-1" points="178.23 191.64 69.29 190.89 14.25 101.56 68.16 12.99 177.1 13.74 232.14 103.07 178.23 191.64"/><path class="cls-2" d="M781.08,476l-22.41-40.59,22.41-40.58L792,435.39Zm-49.5-4-28.13-29.87h44.8l22.41,40.58Zm0-73.84,39.08-10.71-22.41,40.59H702.93C702.93,428.63,731.58,398.19,731.58,398.19Zm57.31-30.43-51.06,14.09L730,395.94H714.91L677.4,435.39l37.51,39.46H730l7.29,14.09L788.37,503l13.55-53.54-7.29-14.1,7.81-14.09Z" transform="translate(-628.97 -330.5)"/></svg>