<svg id="Camada_10" data-name="Camada 10" xmlns="http://www.w3.org/2000/svg" viewBox="0 0 290.85 241.76"><defs><style>.cls-1{fill:#131b2e;}.cls-1,.cls-2{stroke:#2feabb;stroke-miterlimit:10;}.cls-2{fill:#2feabb;}</style></defs><title>WP</title><polygon class="cls-1" points="217.11 240.45 72.27 241.26 0.58 121.68 73.74 1.3 218.58 0.5 290.27 120.08 217.11 240.45"/><polygon class="cls-1" points="210.76 226.64 81.87 225.75 16.75 120.07 80.53 15.27 209.42 16.16 274.54 121.85 210.76 226.64"/><g id="W"><path class="cls-2" d="M1037.39,1509.26a51.62,51.62,0,0,0,29.15,46.29l-24.69-67.21A53.18,53.18,0,0,0,1037.39,1509.26Z" transform="translate(-944.11 -1388.61)"/><path class="cls-2" d="M1123.46,1506.51c0-6.51-2.4-10.63-4.12-14.06-2.74-4.11-5.14-7.88-5.14-12,0-4.8,3.43-9.25,8.57-9.25h.69a51.25,51.25,0,0,0-77.5,9.94h3.43c5.49,0,13.72-.69,13.72-.69a2.07,2.07,0,0,1,.34,4.12,53.32,53.32,0,0,1-5.83.34l18.86,55.55,11.32-33.6-8.57-21.61a51.06,51.06,0,0,1-5.49-.34c-2.74,0-2.4-4.46.34-4.11,0,0,8.57.68,13.72.68,5.48,0,13.71-.68,13.71-.68a2.06,2.06,0,1,1,.35,4.11,53.56,53.56,0,0,1-5.83.34l18.51,55.21,5.15-17.15C1121.74,1516.11,1123.46,1511,1123.46,1506.51Z" transform="translate(-944.11 -1388.61)"/><path class="cls-2" d="M1089.85,1513.71l-15.43,44.92a50.56,50.56,0,0,0,14.41,2.06,48.82,48.82,0,0,0,17.14-3.09c0-.34-.34-.34-.34-.68Z" transform="translate(-944.11 -1388.61)"/><path class="cls-2" d="M1134.09,1484.57a26.14,26.14,0,0,1,.34,5.14c0,5.14-1,11-3.77,18.52l-16.12,45.6a51.57,51.57,0,0,0,25.72-44.57A53.72,53.72,0,0,0,1134.09,1484.57Z" transform="translate(-944.11 -1388.61)"/></g><path class="cls-2" d="M1088.83,1427a82.3,82.3,0,1,0,82.29,82.3A82.1,82.1,0,0,0,1088.83,1427Zm0,147.45a65.15,65.15,0,1,1,65.15-65.15A65.12,65.12,0,0,1,1088.83,1574.41Z" transform="translate(-944.11 -1388.61)"/></svg>