<svg id="Camada_8" data-name="Camada 8" xmlns="http://www.w3.org/2000/svg" viewBox="0 0 2005.48 452.12"><defs><style>.cls-1,.cls-3,.cls-4{fill:#2feabb;}.cls-1,.cls-4{stroke:#2feabb;stroke-miterlimit:10;}.cls-1{opacity:0.3;}.cls-2{opacity:0.8;}.cls-5{fill:#131b2e;}.cls-6{opacity:0.1;}</style></defs><title>banner-new</title><polygon class="cls-1" points="618.31 451.24 574.16 451.24 582.23 425.02 570.15 425.02 562.08 451.24 559.59 451.24 567.66 425.02 555.58 425.02 547.51 451.24 545.18 451.24 553.33 424.75 541.25 424.75 533.1 451.24 530.53 451.24 538.64 424.89 526.56 424.89 518.45 451.24 515.96 451.24 524.07 424.89 511.99 424.89 503.88 451.24 501.55 451.24 509.75 424.62 497.67 424.62 489.47 451.24 487 451.24 495.16 424.71 483.08 424.71 474.92 451.24 472.43 451.24 480.59 424.71 468.51 424.71 460.35 451.24 458.02 451.24 466.26 424.44 454.18 424.44 445.94 451.24 443.37 451.24 451.57 424.57 439.49 424.57 431.29 451.24 428.8 451.24 437 424.57 424.92 424.57 416.72 451.24 414.39 451.24 422.68 424.31 410.6 424.31 402.31 451.24 349.31 451.24 9.31 451.24 9.31 264.42 45.31 234.62 45.31 419.15 653.31 419.15 618.31 451.24"/><polygon class="cls-1" points="869.02 0.5 824.87 0.5 832.94 23.38 820.86 23.38 812.79 0.5 810.3 0.5 818.37 23.38 806.29 23.38 798.22 0.5 795.89 0.5 804.04 23.61 791.96 23.61 783.81 0.5 781.24 0.5 789.35 23.5 777.27 23.5 769.16 0.5 766.67 0.5 774.78 23.5 762.7 23.5 754.59 0.5 752.26 0.5 760.45 23.73 748.37 23.73 740.18 0.5 737.7 0.5 745.87 23.65 733.79 23.65 725.62 0.5 723.13 0.5 731.3 23.65 719.22 23.65 711.05 0.5 708.72 0.5 716.97 23.88 704.89 23.88 696.64 0.5 694.07 0.5 702.28 23.77 690.2 23.77 681.99 0.5 679.5 0.5 687.71 23.77 675.63 23.77 667.42 0.5 665.1 0.5 673.38 24 661.3 24 653.01 0.5 600.02 0.5 260.02 0.5 260.02 163.5 296.02 189.5 296.02 28.5 904.02 28.5 869.02 0.5"/><g class="cls-2"><polygon class="cls-3" points="1612.22 418.62 1744.13 289.57 1866.48 168.88 1866.48 31.12 2004.98 31.12 2004.98 168.46 1882.93 288.86 1750.29 418.62 1612.22 418.62"/><path class="cls-3" d="M2235.5,282.5V419.13L2113.6,539.38,1981.11,669H1844.46l131-128.2,122.2-120.54.3-.3V282.5h137.5m1-1H2097v138L1974.8,540.09,1842,670h139.5L2114.3,540.09l122.2-120.55v-138Zm-139.5,0h0Z" transform="translate(-231.02 -250.88)"/></g><polygon class="cls-4" points="612.83 451.62 568.68 451.62 576.75 425.35 564.67 425.35 556.6 451.62 554.11 451.62 562.18 425.35 550.1 425.35 542.03 451.62 539.7 451.62 547.85 425.08 535.77 425.08 527.62 451.62 525.05 451.62 533.16 425.22 521.08 425.22 512.97 451.62 510.48 451.62 518.59 425.22 506.51 425.22 498.4 451.62 496.07 451.62 504.26 424.95 492.18 424.95 483.99 451.62 481.51 451.62 489.68 425.04 477.6 425.04 469.43 451.62 466.94 451.62 475.11 425.04 463.03 425.04 454.86 451.62 452.54 451.62 460.78 424.77 448.7 424.77 440.45 451.62 437.88 451.62 446.09 424.91 434.01 424.91 425.81 451.62 423.31 451.62 431.52 424.91 419.44 424.91 411.24 451.62 408.91 451.62 417.19 424.64 405.11 424.64 396.83 451.62 343.83 451.62 3.83 451.62 3.83 264.47 39.83 234.62 39.83 419.47 647.83 419.47 612.83 451.62"/><polygon class="cls-4" points="863.97 0.62 819.82 0.62 827.89 23.5 815.81 23.5 807.74 0.62 805.25 0.62 813.32 23.5 801.24 23.5 793.17 0.62 790.84 0.62 798.99 23.73 786.91 23.73 778.76 0.62 776.19 0.62 784.3 23.62 772.22 23.62 764.11 0.62 761.62 0.62 769.73 23.62 757.65 23.62 749.54 0.62 747.21 0.62 755.4 23.85 743.32 23.85 735.13 0.62 732.65 0.62 740.82 23.77 728.74 23.77 720.57 0.62 718.08 0.62 726.25 23.77 714.17 23.77 706 0.62 703.67 0.62 711.92 24 699.84 24 691.59 0.62 689.02 0.62 697.23 23.89 685.15 23.89 676.94 0.62 674.45 0.62 682.66 23.89 670.58 23.89 662.37 0.62 660.04 0.62 668.33 24.12 656.25 24.12 647.97 0.62 594.97 0.62 254.97 0.62 254.97 163.62 290.97 189.62 290.97 28.62 898.97 28.62 863.97 0.62"/><polygon class="cls-3" points="1595.29 418.09 1727.18 289.22 1849.51 168.69 1849.51 31.12 1987.98 31.12 1987.98 168.27 1865.96 288.5 1733.34 418.09 1595.29 418.09"/><path class="cls-3" d="M2218.5,282.5V418.94L2096.62,539,1964.15,668.47H1827.54l131-128,122.18-120.38.29-.29V282.5H2218.5m1-1H2080V419.36L1957.84,539.74,1825.08,669.47h139.48l132.76-129.73L2219.5,419.36V281.5Zm-139.48,0h0Z" transform="translate(-231.02 -250.88)"/><polygon class="cls-5" points="1826.35 290.01 1948.48 168.35 1948.48 29.03 214.94 29.03 90.35 152.11 0 242.12 0 421.12 1693.64 421.12 1826.35 290.01"/><polygon class="cls-3" points="1376.67 74.65 1359.25 29.01 1391.7 29.01 1409.12 74.65 1376.67 74.65"/><path class="cls-3" d="M1622.38,280.39l17,44.63H1608l-17-44.63h31.38m.68-1h-33.52l17.8,46.63h33.53l-17.81-46.63Z" transform="translate(-231.02 -250.88)"/><polygon class="cls-3" points="1420.08 74.65 1402.66 29.01 1435.12 29.01 1452.53 74.65 1420.08 74.65"/><path class="cls-3" d="M1665.79,280.39l17,44.63h-31.37l-17-44.63h31.38m.69-1H1633l17.8,46.63h33.52l-17.8-46.63Z" transform="translate(-231.02 -250.88)"/><polygon class="cls-3" points="1462.95 74.65 1445.53 29.01 1477.98 29.01 1495.4 74.65 1462.95 74.65"/><path class="cls-3" d="M1708.65,280.39l17,44.63h-31.38l-17-44.63h31.38m.69-1h-33.52l17.8,46.63h33.52l-17.8-46.63Z" transform="translate(-231.02 -250.88)"/><polygon class="cls-3" points="1506.36 74.65 1488.94 29.01 1521.39 29.01 1538.81 74.65 1506.36 74.65"/><path class="cls-3" d="M1752.06,280.39l17,44.63h-31.38l-17-44.63h31.38m.69-1h-33.52L1737,326h33.52l-17.8-46.63Z" transform="translate(-231.02 -250.88)"/><polygon class="cls-3" points="1549.77 74.65 1532.35 29.01 1564.8 29.01 1582.22 74.65 1549.77 74.65"/><path class="cls-3" d="M1795.47,280.39l17,44.63h-31.38l-17-44.63h31.38m.69-1h-33.52l17.8,46.63H1814l-17.8-46.63Z" transform="translate(-231.02 -250.88)"/><polygon class="cls-3" points="1593.18 74.65 1575.76 29.01 1608.21 29.01 1625.63 74.65 1593.18 74.65"/><path class="cls-3" d="M1838.88,280.39l17,44.63h-31.38l-17-44.63h31.38m.69-1h-33.52l17.8,46.63h33.52l-17.8-46.63Z" transform="translate(-231.02 -250.88)"/><polygon class="cls-3" points="1636.04 74.65 1618.62 29.01 1651.07 29.01 1668.49 74.65 1636.04 74.65"/><path class="cls-3" d="M1881.75,280.39l17,44.63H1867.4l-17-44.63h31.38m.68-1h-33.52l17.8,46.63h33.52l-17.8-46.63Z" transform="translate(-231.02 -250.88)"/><polygon class="cls-3" points="1679.45 74.65 1662.03 29.01 1694.48 29.01 1711.9 74.65 1679.45 74.65"/><path class="cls-3" d="M1925.16,280.39l17,44.63h-31.38l-17-44.63h31.38m.69-1h-33.52l17.8,46.63h33.52l-17.8-46.63Z" transform="translate(-231.02 -250.88)"/><g class="cls-6"><polygon class="cls-3" points="1425.8 74.32 1392.28 74.32 1374.48 27.68 1408 27.68 1425.8 74.32"/><polygon class="cls-3" points="1469.21 74.32 1435.69 74.32 1417.89 27.68 1451.41 27.68 1469.21 74.32"/><polygon class="cls-3" points="1512.07 74.32 1478.55 74.32 1460.75 27.68 1494.27 27.68 1512.07 74.32"/><polygon class="cls-3" points="1555.48 74.32 1521.96 74.32 1504.16 27.68 1537.68 27.68 1555.48 74.32"/><polygon class="cls-3" points="1598.89 74.32 1565.38 74.32 1547.58 27.68 1581.1 27.68 1598.89 74.32"/><polygon class="cls-3" points="1642.31 74.32 1608.79 74.32 1590.99 27.68 1624.51 27.68 1642.31 74.32"/><polygon class="cls-3" points="1685.17 74.32 1651.65 74.32 1633.85 27.68 1667.37 27.68 1685.17 74.32"/><polygon class="cls-3" points="1728.58 74.32 1695.06 74.32 1677.26 27.68 1710.78 27.68 1728.58 74.32"/></g></svg>