<svg id="Camada_9" data-name="Camada 9" xmlns="http://www.w3.org/2000/svg" viewBox="0 0 1946.88 579.9"><defs><style>.cls-1{fill:#131b2e;}.cls-2{fill:#2feabb;stroke:#2feabb;stroke-miterlimit:10;}</style></defs><title>exp-parte-4</title><polygon class="cls-1" points="1200.04 0 960.19 239.39 721.25 0 0 0 0 579 1946 579 1946 0 1200.04 0"/><polygon class="cls-2" points="1337.38 579.4 1381.53 579.4 1373.46 543.61 1385.54 543.61 1393.61 579.4 1396.1 579.4 1388.03 543.61 1400.11 543.61 1408.18 579.4 1410.51 579.4 1402.36 543.25 1414.44 543.25 1422.59 579.4 1425.16 579.4 1417.05 543.43 1429.13 543.43 1437.24 579.4 1439.73 579.4 1431.62 543.43 1443.7 543.43 1451.81 579.4 1454.14 579.4 1445.95 543.07 1458.03 543.07 1466.22 579.4 1468.69 579.4 1460.53 543.19 1472.61 543.19 1480.78 579.4 1483.27 579.4 1475.1 543.19 1487.18 543.19 1495.35 579.4 1497.67 579.4 1489.43 542.82 1501.51 542.82 1509.75 579.4 1512.32 579.4 1504.12 543 1516.2 543 1524.4 579.4 1526.89 579.4 1518.69 543 1530.77 543 1538.97 579.4 1541.3 579.4 1533.02 542.64 1545.1 542.64 1553.38 579.4 1606.38 579.4 1946.38 579.4 1946.38 324.45 1910.38 283.78 1910.38 535.6 1302.38 535.6 1337.38 579.4"/></svg>