<svg id="Camada_9" data-name="Camada 9" xmlns="http://www.w3.org/2000/svg" viewBox="0 0 1948.95 438.12"><defs><style>.cls-1{fill:#2feabb;stroke:#2feabb;stroke-miterlimit:10;}.cls-2{fill:#131b2e;}</style></defs><title>exp-parte-1</title><polygon class="cls-1" points="609.5 0.5 565.35 0.5 573.42 36.29 561.34 36.29 553.27 0.5 550.78 0.5 558.85 36.29 546.77 36.29 538.7 0.5 536.37 0.5 544.52 36.65 532.44 36.65 524.29 0.5 521.72 0.5 529.83 36.47 517.75 36.47 509.64 0.5 507.15 0.5 515.26 36.47 503.18 36.47 495.07 0.5 492.74 0.5 500.93 36.83 488.85 36.83 480.66 0.5 478.18 0.5 486.35 36.71 474.27 36.71 466.1 0.5 463.61 0.5 471.78 36.71 459.7 36.71 451.53 0.5 449.2 0.5 457.45 37.08 445.37 37.08 437.12 0.5 434.55 0.5 442.76 36.89 430.68 36.89 422.47 0.5 419.98 0.5 428.19 36.89 416.11 36.89 407.9 0.5 405.57 0.5 413.86 37.26 401.78 37.26 393.5 0.5 340.5 0.5 0.5 0.5 0.5 255.45 36.5 296.12 36.5 44.3 644.5 44.3 609.5 0.5"/><polygon class="cls-2" points="1826.82 307.01 1948.95 185.35 1948.95 46.03 215.41 46.03 90.82 169.11 0.47 259.11 0.47 438.12 1694.11 438.12 1826.82 307.01"/></svg>