<svg xmlns="http://www.w3.org/2000/svg" id="Camada_9" data-name="Camada 9" viewBox="0 0 1948.95 438.12"><defs><style>.cls-1{fill:#2feabb;stroke:#2feabb;stroke-miterlimit:10}.cls-2{fill:#131b2e}</style></defs><title>exp-parte-1</title><polygon points="609.5 .5 565.35 .5 573.42 36.29 561.34 36.29 553.27 .5 550.78 .5 558.85 36.29 546.77 36.29 538.7 .5 536.37 .5 544.52 36.65 532.44 36.65 524.29 .5 521.72 .5 529.83 36.47 517.75 36.47 509.64 .5 507.15 .5 515.26 36.47 503.18 36.47 495.07 .5 492.74 .5 500.93 36.83 488.85 36.83 480.66 .5 478.18 .5 486.35 36.71 474.27 36.71 466.1 .5 463.61 .5 471.78 36.71 459.7 36.71 451.53 .5 449.2 .5 457.45 37.08 445.37 37.08 437.12 .5 434.55 .5 442.76 36.89 430.68 36.89 422.47 .5 419.98 .5 428.19 36.89 416.11 36.89 407.9 .5 405.57 .5 413.86 37.26 401.78 37.26 393.5 .5 340.5 .5 .5 .5 .5 255.45 36.5 296.12 36.5 44.3 644.5 44.3 609.5 .5" class="cls-1"/><polygon points="1826.82 307.01 1948.95 185.35 1948.95 46.03 215.41 46.03 90.82 169.11 .47 259.11 .47 438.12 1694.11 438.12 1826.82 307.01" class="cls-2"/></svg>