<svg id="Camada_9" data-name="Camada 9" xmlns="http://www.w3.org/2000/svg" viewBox="0 0 1951.76 891.16"><defs><style>.cls-1{fill:#131b2e;}.cls-2{fill:#2feabb;}</style></defs><title>exp-parte-3</title><polygon class="cls-1" points="1948 253.01 1948 252.77 1948 0 1825.87 121.66 1693.16 252.77 255.25 252.77 122.78 121.9 0.65 0.24 0.65 252.77 0 252.77 0 651.77 253.22 651.77 253.47 652.01 1948.65 652.01 1948.65 253.01 1948 253.01"/><polygon class="cls-1" points="734.75 651.27 974.19 891.16 1214.54 651.27 734.75 651.27"/><polygon class="cls-2" points="1558.06 651.65 1690.12 521.49 1812.61 399.76 1812.61 260.82 1951.27 260.82 1951.27 399.34 1829.08 520.78 1696.29 651.65 1558.06 651.65"/><path class="cls-2" d="M2217,1039.63v137.82l-122,121.28-132.64,130.73H1825.55l131.2-129.31,122.34-121.58.29-.29V1039.63H2217m1-1H2078.38v139.23l-122.33,121.58-132.94,131h139.66l132.93-131L2218,1177.86V1038.63Z" transform="translate(-266.27 -778.31)"/><polygon class="cls-2" points="255.66 651.24 122.87 520.36 0.68 398.93 0.68 260.41 139.34 260.41 139.34 399.35 261.82 521.08 393.89 651.24 255.66 651.24"/><path class="cls-2" d="M405.11,1039.22v138.65l.3.29,122.34,121.58,131.19,129.31H522.14L389.5,1298.32,267.46,1177V1039.22H405.11m1-1H266.46v139.23L388.79,1299l132.94,131H661.38L528.45,1299,406.11,1177.45V1038.22Z" transform="translate(-266.27 -778.31)"/></svg>