<?xml version="1.0" encoding="utf-8"?>
<svg viewBox="0 0 1712.17 447" xmlns="http://www.w3.org/2000/svg">
  <defs>
    <style>.cls-1{fill:#2feabb;stroke:#2feabb;stroke-miterlimit:10;}</style>
  </defs>
  <path style="stroke: rgb(47, 234, 187); fill: rgb(47, 234, 187);" d="M 1.951 446.541 L 119.977 446.541 L 273.19 259.605 L 327.438 274.999 L 314.976 209.755 L 490.915 2.293 L 370.69 0.826 L 1.951 446.541 Z"/>
  <path style="stroke: rgb(47, 234, 187); fill: rgb(47, 234, 187);" d="M 292.392 447.003 L 425.288 288.55 L 403.382 200.195 L 472.02 233.054 L 665.522 1.581 L 781.623 1.581 L 407.033 448.463 L 292.392 447.003 Z"/>
  <path style="stroke: rgb(47, 234, 187); fill: rgb(47, 234, 187);" d="M 449.842 448.464 L 826.83 -0.609 L 944.915 1.582 L 566.459 449.194 L 449.842 448.464 Z"/>
  <path style="stroke: rgb(47, 234, 187); fill: rgb(47, 234, 187);" d="M 969.764 2.121 L 986.723 117.273 L 1116.503 201.62 L 920.357 263.963 L 1021.379 331.442 L 1219 269.098 L 1219.738 161.28 L 969.764 2.121 Z"/>
  <path style="stroke: rgb(47, 234, 187); fill: rgb(47, 234, 187);" d="M 747.031 309.148 L 873.593 298.773 L 1013.553 448.464 L 877.315 448.464 L 747.031 309.148 Z"/>
</svg>