<svg xmlns="http://www.w3.org/2000/svg" id="Camada_11" data-name="Camada 11" viewBox="0 0 153.68 130.1"><defs><style>.cls-1{fill:none;stroke:#2feabb;stroke-miterlimit:10}</style></defs><title>net</title><ellipse cx="76.84" cy="65.05" class="cls-1" rx="76.34" ry="64.55"/><ellipse cx="17.92" cy="72.62" class="cls-1" rx="4.04" ry="3.17"/><path d="M704.42,1771h-6.28l-22.52-29.62a12.6,12.6,0,0,1-1.4-2.34H674a30.07,30.07,0,0,1,.25,5.11V1771h-5.15v-37.16h6.64L697.68,1763a23,23,0,0,1,1.72,2.49h.12a33.33,33.33,0,0,1-.3-5.47v-26.17h5.15Z" class="cls-1" transform="translate(-639.39 -1695.83)"/><path d="M739.09,1771H715.91v-37.16h22.21v3.93H721.06v12.36h15.79V1754h-15.8v13h18.08Z" class="cls-1" transform="translate(-639.39 -1695.83)"/><path d="M773.49,1737.72h-12.6V1771h-5.15v-33.23h-12.6v-3.93h30.35Z" class="cls-1" transform="translate(-639.39 -1695.83)"/><path d="M702.51,1796.06a13,13,0,0,1-5.51,1,9.55,9.55,0,0,1-6.82-2.42,8.3,8.3,0,0,1-2.58-6.33,8.71,8.71,0,0,1,2.88-6.81,10.56,10.56,0,0,1,7.31-2.57,12.91,12.91,0,0,1,4.69.7v2.19a10.55,10.55,0,0,0-4.72-1.06,7.79,7.79,0,0,0-5.57,2,7.06,7.06,0,0,0-2.15,5.4,6.73,6.73,0,0,0,2,5.11,7.27,7.27,0,0,0,5.23,1.89,10.54,10.54,0,0,0,5.2-1.15Z" class="cls-1" transform="translate(-639.39 -1695.83)"/><path d="M712.24,1797.09a7.08,7.08,0,0,1-5-1.72,6.11,6.11,0,0,1-1.89-4.66,6.25,6.25,0,0,1,2-4.92,7.68,7.68,0,0,1,5.3-1.78,6.86,6.86,0,0,1,5,1.72,7.12,7.12,0,0,1-.14,9.59A7.28,7.28,0,0,1,712.24,1797.09Zm.16-11.44A4.64,4.64,0,0,0,709,1787a5,5,0,0,0-1.27,3.64,4.43,4.43,0,0,0,4.73,4.8,4.39,4.39,0,0,0,3.43-1.26,5,5,0,0,0,1.19-3.59,5.09,5.09,0,0,0-1.19-3.62,4.52,4.52,0,0,0-3.43-1.29Z" class="cls-1" transform="translate(-639.39 -1695.83)"/><path d="M730.38,1786.29a3.3,3.3,0,0,0-4.15.8,5.16,5.16,0,0,0-1,3.31v6.39H723v-12.51h2.28v2.57h.06a4.33,4.33,0,0,1,1.48-2.07,3.72,3.72,0,0,1,2.25-.73,4.14,4.14,0,0,1,1.35.17Z" class="cls-1" transform="translate(-639.39 -1695.83)"/><path d="M743.93,1791h-10a4.33,4.33,0,0,0,1.28,3.22,4.8,4.8,0,0,0,3.36,1.15A7.65,7.65,0,0,0,743,1794v1.9a9.28,9.28,0,0,1-5,1.2,6,6,0,0,1-6.47-5.41,5.15,5.15,0,0,1,0-1.11,6.37,6.37,0,0,1,6.13-6.6h.44a5.7,5.7,0,0,1,4.29,1.59,6.07,6.07,0,0,1,1.53,4.42Zm-2.33-1.72a3.72,3.72,0,0,0-1-2.71,3.44,3.44,0,0,0-2.57-1,4,4,0,0,0-2.74,1,4.49,4.49,0,0,0-1.41,2.66Z" class="cls-1" transform="translate(-639.39 -1695.83)"/></svg>