<svg xmlns="http://www.w3.org/2000/svg" id="Camada_8" data-name="Camada 8" viewBox="0 0 601.3 482.32"><defs><style>.cls-1,.cls-2{fill:#2feabb}.cls-1,.cls-3{stroke:#2feabb;stroke-miterlimit:10}.cls-3{fill:#131b2e}</style></defs><title>painel-foto</title><polygon points="441.77 452.6 184.09 450.82 53.91 239.54 181.41 30.04 439.1 31.81 569.28 243.1 441.77 452.6" class="cls-1"/><polygon points="454.47 480.21 164.9 481.82 21.58 242.77 167.83 2.11 457.4 .5 600.72 239.55 454.47 480.21" class="cls-1"/><rect width="59" height="309" x="286.85" y="128.45" class="cls-2"/><polygon points="433.47 480.21 143.9 481.82 .58 242.77 146.83 2.11 436.4 .5 579.72 239.55 433.47 480.21" class="cls-3"/><polygon points="420.77 452.6 163.09 450.82 32.91 239.54 160.41 30.04 418.1 31.81 548.28 243.1 420.77 452.6" class="cls-3"/></svg>