<svg xmlns="http://www.w3.org/2000/svg" id="Camada_11" data-name="Camada 11" viewBox="0 0 118.62 132.84"><defs><style>.cls-1{opacity:.8}.cls-2{fill:#2feabb}</style></defs><title>unity-borda</title><g class="cls-1"><path d="M480.56,884l.11,3.07v0l3.35,6.43c1.1,2.15,2.25,4.28,3.32,6.45l-.32-.27,47.74,14.22-.52.81-17.56-20,.24.15-18-5.17c-1.49-.41-3-.89-4.52-1.38l-4.57-1.44Zm0,0,9,2.32,4.55,1.15c1.52.38,3.05.76,4.6,1.22l18.47,5.2.14,0,.1.11L535,914l1.15,1.31-1.66-.5-47.75-14.2-.22-.06-.09-.21c-1-2.18-2-4.4-3-6.61l-3-6.62v-.05Z" class="cls-2" transform="translate(-429.59 -782.53)"/><path d="M538.21,849l-9.93,38.9L528,889l-.54-1c-1.81-3.21-3.6-6.42-5.35-9.66l-5.29-9.71-10.59-19.39.72.18-9.46,6.14.17-.64,19.82,39.17-.07-.1L535,914l-.86.21,13.07-51.85,0,.36L540,849.26l-.12-.23.12-.24,7.21-13.44,0,.36-13.51-51.08h1l-3.15,12.1q-1.54,6-3.2,12.08v-.22Zm0,0-10.79-40.22,0-.11,0-.12q1.49-6.06,3.1-12.11l3.16-12.1.48-1.84.48,1.84,13.51,51.09.06.19-.1.17-7.2,13.44v-.47l7.2,13.44.09.18,0,.18-13.07,51.86-.23.92-.63-.72-17.56-20,0,0,0,0L496.78,855.4l-.2-.4.37-.25,9.46-6.14.45-.3.26.48,10.59,19.39,5.3,9.7q2.65,4.83,5.23,9.73l-.81.1Z" class="cls-2" transform="translate(-429.59 -782.53)"/><path d="M481.46,813.31l12.5-3.94c2.07-.66,4.13-1.33,6.17-1.88l6.15-1.79,24.59-7.08-.35.37,3.15-14.59.62.58-46.84,13.07.32-.26c-.56,1.12-1.18,2.21-1.77,3.32l-1.78,3.31L480.64,811V811Zm0,0-1-2.28V811l3.18-6.82,1.59-3.41c.54-1.13,1.05-2.28,1.61-3.4l.1-.2.22-.06L534,784l.8-.22-.17.81-3.16,14.59-.06.29-.29.09-24.95,7.12L500,808.47c-2.09.63-4.16,1.14-6.21,1.67Z" class="cls-2" transform="translate(-429.59 -782.53)"/><path d="M496.32,842.5l4.94-9.86c.85-1.65,1.63-3.32,2.52-5l2.67-5,10.67-19.95.1-.19.2-.06,12.75-3.65.84-.24-.22.84-2.45,9.4,0,.06,0,0L517.71,829.1l-5.29,10.08c-1.78,3.35-3.47,6.75-5.39,10l-.22.38-.34-.23Zm0,0,10.57,6.19-.56.15c1.62-3.44,3.46-6.76,5.2-10.13l5.3-10.08,10.58-20.16,0,.1,2.45-9.4.62.61-12.74,3.65.3-.24-10.56,19.59-2.64,4.9c-.88,1.63-1.87,3.26-2.8,4.9Z" class="cls-2" transform="translate(-429.59 -782.53)"/><path d="M481.46,813.31l-6.35,7.39c-2.14,2.47-4.21,5-6.49,7.43l-13.36,14.7-.1.11-.14,0c-6.15,1.74-12.3,3.47-18.48,5.13-1.55.41-3.09.82-4.66,1.2l-.59.13-.31.06a1.91,1.91,0,0,1-.46,0s.05,0-.19-.07a.53.53,0,0,1-.26-.45l0-.1a1,1,0,0,1,.09-.21,1.16,1.16,0,0,1,.16-.21l.2-.24.4-.45,1.62-1.78,6.52-7,26.25-28,.14-.15h.21c1.24,0,2.48,0,3.72,0h3.72l7.44,0h.06l0,.05Zm0,0-1-2.28.08.06-7.42.41-3.72.2c-1.24.06-2.47.15-3.71.19l.35-.16-26.25,27.95-6.51,7-1.61,1.77-.39.45-.19.22s-.07.09,0,0a.11.11,0,0,0,0-.08s0,0,0,0,0-.35-.24-.43-.12,0-.16-.05l1-.22c1.54-.36,3.08-.78,4.62-1.19,6.17-1.65,12.32-3.38,18.47-5.12l-.23.14,13.21-14.48c2.15-2.43,4.51-4.77,6.79-7.17Z" class="cls-2" transform="translate(-429.59 -782.53)"/><path d="M497.23,855.17l-15,.38c-5,.19-10.06.09-15.1.12H436.67l-.15-.14-6.31-6.14-.62-.62.84-.23L454.76,842l.06,0h41.65l.12.08c1.74,1.06,3.45,2.17,5.15,3.31l5.09,3.4.38.25-.37.23Zm0,0,9.3-6.38v.48l-5.26-3.14q-2.64-1.54-5.21-3.21l.26.08H454.89l.13,0-24.33,6.53.22-.84,6.31,6.14-.35-.14H467c5,0,10-.07,15.07.12Z" class="cls-2" transform="translate(-429.59 -782.53)"/><path d="M480.56,884l-6.77-7.05-3.36-3.51c-1.09-1.18-2.13-2.4-3.21-3.58l-12.87-14.33.38.16H436.87l.37-.83L465.62,886l-.35-.16c1.28.07,2.55.1,3.83.19l3.82.32,7.65.63-.13.12Zm0,0,.12,3.07v.12h-.13l-7.67-.13-3.83-.07c-1.28,0-2.55-.13-3.83-.19H465l-.14-.15L436.5,855.51l-.76-.84H455l.15.17,13,14.48c1.07,1.21,2.18,2.4,3.24,3.62l3.1,3.69Z" class="cls-2" transform="translate(-429.59 -782.53)"/></g></svg>